<mxfile host="app.diagrams.net" modified="2021-11-03T06:43:52.449Z" agent="5.0 (Windows NT 10.0; Win64; x64) AppleWebKit/537.36 (KHTML, like Gecko) Chrome/95.0.4638.54 Safari/537.36" etag="rHftI8h-4iT2btFe5SV8" version="15.5.5" type="github">
  <diagram id="4YIY5ywtxXCsKWHS81sX" name="AladdinJobHandler">
    <mxGraphModel dx="1422" dy="1931" grid="1" gridSize="10" guides="1" tooltips="1" connect="1" arrows="1" fold="1" page="1" pageScale="1" pageWidth="827" pageHeight="1169" math="0" shadow="0">
      <root>
        <mxCell id="0" />
        <mxCell id="1" parent="0" />
        <mxCell id="lzVTPE6SVPyK5xBB-7iW-2" style="edgeStyle=orthogonalEdgeStyle;rounded=0;orthogonalLoop=1;jettySize=auto;html=1;" edge="1" parent="1" source="lzVTPE6SVPyK5xBB-7iW-1">
          <mxGeometry relative="1" as="geometry">
            <mxPoint x="390" y="90" as="targetPoint" />
          </mxGeometry>
        </mxCell>
        <mxCell id="lzVTPE6SVPyK5xBB-7iW-4" value="bff-baidu-tool" style="edgeLabel;html=1;align=center;verticalAlign=middle;resizable=0;points=[];" vertex="1" connectable="0" parent="lzVTPE6SVPyK5xBB-7iW-2">
          <mxGeometry x="-0.2143" y="-3" relative="1" as="geometry">
            <mxPoint x="5" y="-3" as="offset" />
          </mxGeometry>
        </mxCell>
        <mxCell id="lzVTPE6SVPyK5xBB-7iW-1" value="baiduToolService.aladdinPush()" style="rounded=0;whiteSpace=wrap;html=1;" vertex="1" parent="1">
          <mxGeometry x="70" y="60" width="180" height="60" as="geometry" />
        </mxCell>
        <mxCell id="lzVTPE6SVPyK5xBB-7iW-8" style="edgeStyle=orthogonalEdgeStyle;rounded=0;orthogonalLoop=1;jettySize=auto;html=1;" edge="1" parent="1" source="lzVTPE6SVPyK5xBB-7iW-6" target="lzVTPE6SVPyK5xBB-7iW-7">
          <mxGeometry relative="1" as="geometry" />
        </mxCell>
        <mxCell id="lzVTPE6SVPyK5xBB-7iW-6" value="AladdinController#push" style="rounded=0;whiteSpace=wrap;html=1;" vertex="1" parent="1">
          <mxGeometry x="390" y="60" width="180" height="60" as="geometry" />
        </mxCell>
        <mxCell id="lzVTPE6SVPyK5xBB-7iW-7" value="PushThirdService#aldPush" style="rounded=0;whiteSpace=wrap;html=1;" vertex="1" parent="1">
          <mxGeometry x="680" y="60" width="180" height="60" as="geometry" />
        </mxCell>
        <mxCell id="lzVTPE6SVPyK5xBB-7iW-10" value="" style="shape=image;verticalLabelPosition=bottom;labelBackgroundColor=#ffffff;verticalAlign=top;aspect=fixed;imageAspect=0;image=data:image/png,iVBORw0KGgoAAAANSUhEUgAAAjMAAADOCAYAAADLwYMsAAAgAElEQVR4Aey9+VNbS5smWH9PliSkYncAYlOwIwRGNkuYxeyr2Y0BA8bYyMZgA9fCmMWI1dfYhs+Afb37Gr6oul91R/8wPdEx3VERE90REzW/VPRMd0/NdFc/E6mjs0gcLaw28P6gSEl5cnvzycwn3/fNk3/1N3/zN6APyYAwQBggDBAGCAOEgdOKgb86rRWnetOgIwwQBggDhAHCAGGAY4DIDGmmSDNHGCAMEAYIA4SBU40BIjME4FMNYNqV0a6MMEAYIAwQBojMEJkhMkMYIAwQBggDhIFTjQEiMwTgUw1g2pHRjowwQBggDBAGiMwQmSEyQxggDBAGCAOEgVONASIzBOBTDWDakdGOjDBAGCAMEAb+6q//+q9BH5IBYYAwQBggDBAGCAOnFQNEZojMEZklDBAGCAOEAcLAqcYAkRkC8KkG8GndRVC9aQdMGCAMEAaODgNEZojMEJkJAAOMhSC10Y7x55+wNFwBLWMktwDkRpP10U3WJEuSJWHAOwbODZmJjtGiM1OLRM3PuQj97PU7DYPIkFCKhqFFNFvlPo6rt2OwuxEpEZpDkQ+WcAO/bK6hLd+M+KiQQ+V1GmRJdfQ+aZJsSDaEgZ8PAz81mWFMgzsNBtgT5cVJCaJkix5/f/1vnJ+/dOjRGKT+HGMMKUk6jOXpkKNTf0aZ70l/30/9MnL0+KNIeySLqeVGCfDneuGzW4A7Yf5lc7n3Kv7HL3HO8hkLxczLOimPf/lSgX+YzkRjzOGIgyh/xsKx8KdavC/xX68Q802Mrr3BQEsZ4kPk53XRVpTdfo65hYfIjT54vZj1ARzP7yKFNDJHgj2xjyn8+RYF6hPqk9OIgVNNZnR6DUzhGphidFj3QWZOY8d4q/NRkpmg8GBkJoYiMycD//4QZOZvW0Kd+WSlxeCXmQr8syMZyUew6AdKZpguG+0rH3G71AiNSrncRJTRu475kQqEqMR7k7Xyf2a+i9nXIzAfML0yL/pOiwVhgDBAGDhaDBwrmRE0K3qMpGgxVm3AboseawVaJGuFnTOP768zYDpZ3jFnXzJgt1DQPIiamcfp6ulFMLAQHda8kBljplJ7E4Ryj8WIaTWouhyEzWsG7DTpsXBJiwRX/cT8vYUsUoft9iDUKzRCuvgg/N4ahDKXBogFadBSoMe7Jj12GvWYu6iBUWHq8lc/TbAWQ+V6/N5qwGaJDvXW/WlmguJisTJbin/6UoP/8q4Uf75lRLKifN42ZkzBv/VCZjRRMVh+dhX/15cq/O9PUnDrdukezczXCrn/mCkN/7BbgMFQBlFzo4wvHizHf3tolHb32rhYrM2X4p++1uK/fy7Hvx1PRl6wiA9BM/NbUzw2f63Ef/tcjv/lQTwyPbRrwSWTWFq45dOEyCIacX9zDTVxstbGW7+q/c+S+2DfnECuB37UnqX/jnaSInmSPAkDhAF/GDgRMvO2TIcGowaZcTo4runxPFNY/AIlM7+Vq6cXG+eLzGiDXNqbuCC869hLZtIsevxtvQ6NRg3SjVr8Um/Aera8OItlqIW8/oP1Bswmi4svw6U8Pf5crEUw44s5Q16eHrvVQaiK1sDsbL8Bi+ly/r7qx/O/ekWPnWodKqI1sCTqMFUXOJlhzADbdAX+12ETGrLCkZefjN+3qvFHvUEiE7xd3sgMYzq0jVfiv65moTMrHFdKMvD5ZYVvMhOXgn+3WwhbpH8yw5gWXfYa/NNMKqrTQmHNScDaShX+Q0+4y4zFyUwN/g+HBXdzw1FwJQP/5mPtnvqndG9iyVaqqpUR+42xdDQt7eBWkc6t7WK8r5BpghBZasf8Qi8SiMzsW36+ZEtxtEgRBggDR4GBEyAzBiykyYt3SrYef5RoEeRc7APTzHhLLwrAF5mRnonUYcuDzHCycL3KvX7BMTqMmDUIDXDRysrV488lOhd50cDWaMBMkkhu+G89xuNlbYCy/WLdeMi1PHvrp3XmN+7SJnByVJgfOJlR5i9+vzJQ5qYZcZbtRTPDWCRWt6qxWSCTz/oHlV7JjMYQjObhq/jva2mwOPtX8KnxpplhTI+RhTr8u+vqDrWCmakO/6pRLy2gVbbKPfU397/HbF+u9IzYVmXImBFVU7u4Wx7q8zn3NBa0rOxgeWsHyy8cqM5wJ4HKZ+k7TciEAcIAYeDHYeBEyIzSgTcyXY+/VOoQtQ8y4y29CJzDkBlfDsZi/r5CFqXDe5dZiV0QzE41LrMT1zxMtBpwJ0omM8r2K/P1RmY80+/XZybWmo7f18rxX36vxf/Y4Z86iYyI5XvXzBix/aUcC5ly/dUcgP+nM99a/MtOHf554zJsaaKZ0DeZ4eWn1ubjP/9eiX9wXMbboXTcuRQCg4tIqvnM5PaUAvZ4N0JivvUhYDIzVBHmllaUgVrIyVZYrAmxpgxYOpYwb29y4lbtWfrvx01iJHuSPWGAMEBkxsdpqUAGCNfucO3L40SGpGw9/q5MizBpMf6xZIbpY/DuYzX+dY8R+SmhsJhC0Xav7MjJzB9tYc68zcYgp8ZNlFsgPjNcfsbUGNxuy8CL8UL84+/V+Lv6YCfhCJTMZPa/x1z/JZ8khbFYVE/vYqhcXQsk1tlbyJJ7Yd8cx8UANXbe8qH/adIlDBAGCANHj4ETITNKM1Gqm5mJoaPS3cxTmG/Ax0uyWYNrTrylFwEhaWb0sgZBjBNDdc3HXjNTiFGHCYs2YDMTzz/HasDvBVrcqNLDkSqb1ESiczgzk2ym2q+ZiSWm4T/s5qFHdEZmGtQNy2YiSTYxggPw3XB3+UlmpkKxPxh8mZnE/MSQ++w8XKrDXxqCJKJR/6AK/+fdCy6yokFoqA4hCofrgltX8T+fJLjMkHuPZqtpZhLbX2PlYY0bkRLrIIaM5aBj7Rt68uT+EeMCCVnGIKbXR53ms0Cep2eOfrIimZJMCQOEAW8YOBEy87EiCPWiA3CTHr+6HIB5pcwX9fjbGh0qozXIjNdhudmASZOwqHIywMnMBx/peR5Mo8VkmwGzGRok8aPa4RqEawQH3NAQdwfgVkU8T+vpAGyvN+BV1v4WPE20Dh8b9Nhs1eOaQSYEsgOwzukALDhAG7DkcgDm8b7qx9vPHYB3qwX5cAfgmXpDwO+ZYYY4fPxchb+/YUReaiQar13E5+fye2JEUDBdHD5+q8JOUySy+FHtxGBE6bj8uANwFf6f5xbccDkA/74ukyE1zYuYpxgW9Jfi/13Lxg1LOPIL0vGvPlbjY6nghMvTP1mrxX+aSEZ9Zhiys2Lx4nkN/vGOSHYCIzNa8xCm1yeRFyrLXixfDLUZg5jamEaBB2ET4/2FLPcBHL8OIZU0MxIx9ScziqeFhzBAGDgpDJwImbGbtbDX8qPZBry+okWKYifuPLpcGIQPLQbsXNNj/qIW0ZKZhpMZPUbSvKfnguKkIDk1COtNBvzRYQB/gd7NcIHMcM2P+GI9MRTjnWm1GlTn6bHdpMdukx6L+ziaLXYSJx3DjQb8UaHd41PB29daGIT3za725WoR6zoazevtr36aEA1sFXp8bzVgu0yHqpygwMkMf1lgiQX/ZrMa/8yPPY8korSpYK+ZiWmQXWfFv39fjX/ZrQN2S/HERSg1MTF47ijH//21Gv9xJg1dPVek9IGQGRYSjvuPruAfP1bjv/Kj4X1GtxNBelM81h1X8Z+/1eL/+1yO/82eiqsuwhGomYmxaJROfMbUcDWiPY5tO/s43Iq2uS+wd5oPfA0BSx/A0z/Nozze4PPUlIgJCmkSJwwQBggDJ4eBkyEzXt7gSx19ch191mXNQrPRMPkBjqU5lLmOyvM2R+Tfw/jaF/wyeBUXFCR6v/LgPjf5tg0sbu9g5QHdzbRf+dHzNNYJA4SB48QAkRm6LO/MmA2YJgSxl67B6joazwdORHYt8tIuHFgjoxx8XAMXFG6Eke5mOjOYUfYvfafFljBwejFwrGSGgHF6gUF9R31HGCAMEAYIA6cFA0RmSDNDu2zCAGGAMEAYIAycagwQmSEAn2oAn5ZdA9WTdriEAcIAYeD4MEBkhsgMkRnCAGGAMEAYIAycagycCJkJDxcuDiRWenyslGRLsiUMEAYIA4SB84oBIjPExk81Gz+vA5faTYsWYYAwQBiQMUBkhsgMkRnCAGGAMEAYIAycagwQmSEAn2oA085E3pmQLEgWhAHCwHnFAJEZF5mJMDegqv4KYg7xltjzCiLebpIfTaLnGf8n0XZDQikahhbRbJXvIIurt2OwuxEpEfu7T+4k6ktl0Jxwkhg482TGavsdk52ZPrUP/M2u8cWD6OpvRmqwPFEE2hEs7jrGt6dRELT/tIHUL9B6/Kjn9iO/xI51LN+76rM/flQ7PMuNzprAZPuvzo+97R4uB9C/cdl2PL5yydk+xiJwpeK5lIeUV02DdP+YZ5kH+c3CanCn7S4unlEi7m18MWZCw/wunr/9s/OzsvEOvzzqR3aU9kjwxVgampZ20FugPq4Zi0LFpFy+WI/pmzleyz8o/kPMNzG69gYDLWWID5Hro4u2ouz2c8wtPERuNBGag4wfSnM2SBeRmSMwM3mbbAMZJGeBzATSTvGZg07mYvqTDLX6KESFGREV04jBQ5CZm+ZEIR+eF/+EhB7J9QqiLM47mblbZ4IxLhGxyfmoHnuHRXvTngtfRVntJ/RPZrQIjkqEMS4Z1Y93Ye8tcNYjKlx/pGSG6bLRvvIRt0uNqpecMhaCjN51zI9UIIRudfcq+/30PT17+gjOuSczF+qXpJ3d6rYdlzwmA42xBO2P1zG38R3L61sYtV2DySDsjFjGIKa39+7MVud7EOuRjzg4DPFFqC3PliYlf2SGBafj6p0lTK59gePXlxjsKECkdOs23zl+QEd5BXrm3sPxegsjA5UwKnbouvgq3HiyCcfGB4zbGpDdvCxpRhhLxOXGGiSFH3wn61d+F/LRPLGB+Y2PsI+04krXK6l8LhNf8hVldpyhNtSKmtLHGG1exFjjY9y4eFGSr1guC6lEvxcyowm2oObqJB41O2ArroQ19/EezcyNFIPXCdZf+UwbixyrDbbGBYw32tFtvSRdmMmiWjHc5lvzw4JMKMgfwb3GBYw1/oLOnGxEuPDD25eY+xTDl4tgzR/HaPMCRqr7URAp1JeF1eFO2ziKw2RNgDa+C4+a+2BWYEyUk1roC3/8eRaahUrbMqZefYHjxTqGukslU6+/8SVqZgaKdZJ8WcIN/LL9DEUhDGrxKd2bcNy5Ij3vC38CmfmOm7Vl6Jp5D8f6NkZuV8LocTM7Y3pcebSLX9pSpHxFWWiOAP/BJZNYWriFREW/ifmLIYtoxP3NNdTEyX0lxem0GGkw4EuZDnFe5iXxWQpP3yJOfSb02bknM9qQGOduymi1YdKDzPBJKm/4G2bH2pGZbEKCuRLtUx8x3pbunLRYUCRiEkyIzR2EfduBqmQTYvlvYyR0HpOGIf4KaoaeY+7VOgZr0gIiM7x8860tOGZsyMtIQ5K1HXdffIWtyiiU71SDf8HkYxuKLelIutyD+69+h60yyhVvRLn9O+bsvbiYnobk/B50T29KZIKxaOT2rmD21QbudFYfiNT4ll8wrLYPcDy9g8sZaUgu6EP//FtF+b7l62+QMpaPrtc7WN70+NibEe4hf7W8uBkor2QGt/JKkB6ViLi4cnQ0LKIrNdJtUfJGZhgzIKvwGcYrW5EdlYiEhEa01cwETGYCKT/WMoHHdX24bExErLEITbWLGLQkCP2rDUdUeCyi41pgaxtGcWQsovnv0DCn5oexIKRensZ4VTtyohMRH1eNG42L6E4T8MFlwsnMeMMDNKZmIu5CFopKZmGvrnOawRiLxJXyFdzNTnThSYvM/Hk8KrgYkGaJMX/4MyB78B1mJ7qQk5aKxOwG9C19w2iDqzw/40uNrLCYdjzadqA03D+Z8Tu+nePrG6bs7uNryDW+REx5IzOMHQ3+OQFbspVKc4ZYrjJkLN1pErtVJBM7MZ4ZtJhvNeCPOh3SAhgXYjoKidicJgycezIjdhZL6oF9D5mJRLl9Fw+vCYuH+Kxn6MvMJJKY2ZevMNBRgcQwd7u2L80MY2a0rH5G1yVZcxLfsoblkSonWRJ2jru4Vy0vvpl9v0k7T6YtQf/mFprT5d1aZv97iUyI7dAb81E5uISZVxsY7KyG6QCaGnX5ZQn1twr15741loEPUvl8sQxEvmI9PUO+WETEuwgkJ5HiJzo8oMXWMz/+O+HiE4znu/s8eCczKahpWMC1OLl96XnP9pAZe+sKHis+t7Ni3ciSsh7K8hm7gKLK5+hODZWe18eUoyHTDINiUfJmZmIs2a1+vBwjJ0fFBRLZ5mTGXlos5cciGmBrG0KuS/sQknIXj+tbkcAYmDYHLU0OXIvfu2Aq2yB+94c/xjg+3qPdIuPzQsMyVsZqpfrwvLyNL08yo9EbcXFgHctzN5yaUc94npdSM+MPf/7Gl9ROL5oZoX2f0XVI/Jv732O2L1fCgFiuMuTEsWpqF3fLZawo44P0Glzw0Cgp4+k7EZfTjgEiMy6fGbXFmHduVPk0nr15jwn7E/Tc7EZxTpy0EIid732ytaB19SNGeyoRH+JOYsS0vslMAbo3NtGUJk/2YdXzWJ1sRQRfXFQcFBPaXmJ1uELYSQfXYmjbXfXsy2clKCYPtSObWHpQuW8yoCY/xvbW37P8QOQryuo4wlBjHTqqpzHW4iIcbc8lMiKW553MZKOp+SmqouT+UXMA7rekCBoTrjUJj0WkQSYDvsrnZsCquhW0JMr5i3VSht7JzN76habdg72iEmEuMuTUzCjIGzdrZaRkI9q18DGdFW3Ns6g3aqFL6MV4YxdSAzQxMT/4E/CxixWlZm1rR8K32Ebv40twAF7ZEjRzK1u7WFycRGmyy0zmchBWmqGUZIbn7wt//saXVD+vZOZo8G++9SFgMjNUEeaT9Ih1ppDIy1nDAJEZP2SGMS3CkgpR1NCLNpsDU28+Y6hCMPOIYPA+2V5Adscspl5t435/EzKig/ZMNAcjMy1OM4q/yZbpyjCwuYHGZHkxTOvZkjQjUv2ZBqHJ5Wgcfom5F6voLk3yqdIW0ynDg5KZQOSrLEf5/dBmJm02mq85cNOSg/gIgWhkXZ46cjLTk6a+wDA/5R8bmSmvQKgXMqOUL//O+4drmx7mXYSlcAEjlzIDJrr+8CeQmbe4UajQqnHtmodmzfv4EsjMUEOKUytnjBbMa2Ib/GlmxPZ5G9/+xpdcjrrPTCBkPhD8c23qXL9wQk4s0zNkLBbV07sYKg/ZM8d4Pku/icicRQwQmfFBZhjTQR8SgiDFTjSpcwMrI1VuEzqL9X00WxuZheKeWUy9FkhNZrR82sE3mfFiZnpQqTAzuR8dddPMsETUze1gcqgCxmAdDPEV6Hz2SSIzfCINT6tG0+g65tdW0d1YiBiXc/N+wa5OZlxmJpeZbK+ZKTD5eqvLYc1MLLwWg213kCM5VGuQpjATieWykArcaruPy3qZFPI4xgIzM3klM37KVzczVeNalsXdDBNWg0GVo9lezUxFBRJ+PTUzYpuVoSa6BcP1w+htmEVtjLqGURduRLjBPY6TMd/44/j4it4CWVOlLFf87m18qZEVMQ0PxaPTtkr5bjjLwEeIR6f9je/Dk5mjwX9i+2usPKxBkMK0qGyn0NYcdKx9Q0+eex8IcQyZiTrUJ2jotNMRnF71lD39/jnI4bkgM08HSmV/Cr7zi49yLgZ8MReOViZCcACeQVkcP2ppRIiWm3GEydhuuwZLahLi0kvQNvMNU93ZbrsfFlyNu5tb6C3LQhzPP0p9d6SNtKDk5hymbLIZh5MZ7/UTHYCHnA7AJtEBuFrpAOydzPBBFmzuxsjaDla3d+B4ZkNV30sFmclC8+xzdDdeORCJ8S8/7gD5EQszQ5ID8O2F3xTlBybf45osuAmltdmBnqxsxEUmIz29C21V8ntixHKZxorWFgeupycj2nm8OgrBGo4P7gA8j4mqdsEBOLERHbVzkmZHfM+MVzITQPmSA3BMImJjitFSu4jbWXHu+NMV4kbrNFpTUhDDTVkhwc54bw7APZ4OwAozk9hmZch3/eU1z2FvaIVJZUFl0Y24/2YXKyu3keIR7xt/BlgG32Hp2X3km9OQnFOPrmefMNac6t4+L+PLH5nhbUi6vo6luXtO/JmsXbj38hP6CgW/En/j2x+ZkfGvfjRbcAA+PP615iFMr08iL9SdTCv7SJsxiKmNaRSE732G6bSYazfgba5m3xpXZRn0/edYtKkf1PvhXJAZ8WVWYri68RDZTp8T9ZderW6/RG2CMCnoEipx3b6BZ292sLS+jbHh60jzmFT4omGqewL7q+/OY96rHpobT/BpdfJOlJMZsV5iKNaPp2PBmSgb4kdXv8Lx4hXudF5BlEtT5G+yFctluhBEREdCr2FIv/kWzwbyXIudDrpDOAWKO1+x3mKolJ8mqhCt9k3Mb3yCfew68trko+G8foHIV2zHUYdcUxSZ2I7eegcmmqbRn38FpvR7EhkRy+OLVkxKLwYbF2Fvew5722NcdS0ampBs1JZPCUezS2uQkz0qpfdLZgIo33k0+/J91aPZcv10iM8YhK1pWXjBX7GseWFBSSgoGMX9a4sYdx49z3E7eh6IZoYvypdKV3Avd+/RY14HFl6C3tUvmLO3qr6SwBv+nGnDslBlW8XTV1+xsLYBW1+FytFn9fEVCJlhwWm4OrTszN85fjoKnP5moux84c/f+PKGf1Hzw8s4CvzzU4elE58xNVwt+TKJ9XfKMNyKtrkvsHeaJY2bMl4Tq8O3Dj16VIiO8jn6rr5IklxOh1zOPJk570Dk2oNwI9c2mZB06QZsa58xUBzhtvM97zKi9vuerJihCN2tT1ARuXfX7092hD/fsvUnPzGehWajYfIDHEtzKFP4wEXk38P42hf8MnhVev+QmEYM03L0+KNSB6OH1kyMp/Bo+ojk+GPlSGTmjNtQGcvF9bVdrG5/h+PXNdxuy3PbmdIA/LED8DTIPzTNhsd1japaF3/1J/wdHb6YJgSxl67BmiSTyojsWuSlXVDVyPC+4drH5nID5lP3+tL46zuKP7q+I1kevyyJzJxxMkOD6PgHEcmYZEwYIAwQBn4sBojMEJkhkxNhgDBAGCAMEAZONQaIzBCATzWAaTf0Y3dDJH+SP2GAMPAzYIDIDJEZIjOEAcIAYYAwQBg41RggMkMA/mEAzs66gLP8+Rl2K1QH2jUTBggD5wEDRGaIzBCZOSZSdR4mEGojLZSEAcLAz4ABIjNEZojMEJn5YRj4GSZBqgMtxoSB048BIjNEZn7YQnaWTUy8bedpgmQsBKmNdow//4Sl4Qqv7z05TzKhtp7+BZL68PT04bkhMxHmBlTVX0GM4tJIAur+gGpIKEXD0CKarfJLu+Lq7RjsbkRKxP5fynXeyIya/EQMnnZ8soQb+GVzDW35ZsR7uZtMbCuF+xt3JC+SF2HAPwbOBZnhb8GMLx5EV38zUoPlhVgNIIkd69JFiGrxx/Efi/N96/ZxlLnfPEPMNzG69gYDLWWID5FlqIu2ouz2c8wtPERu9P4IjUhmLOZ4VA0uYGbDdbfVm19QZ448tHOwxZyC689299599awL+UeSvxX9v+7gXpN6XZUy9iY//szPjk9lO7x9Z9YHcDy/u+eiSW/P0//+J2eSEcmIMBA4Bs4FmdkPIIjM7AUP02WjfeUjbpcaVW/d5SaGjN51zI9UIGQf979IZOZSO8a3NzHUbEVRURaKipJw8UjIhkBmHt/Oc+XL885CUX48so8k/8DIjD/5/ez4DKR+zHwXs69HYN5H/weSLz2zdzySTEgmhIG9GDjzZOZC/ZK0M1/dtuOSx2SruZCP5okNzG98hH2kFVe6XrlpZjTGErQ/Xsfcxncsr29h1HYNJoOsmfAHKl/pWcYgprdVNAfzPdI9OCndm5juq0XhnReY2/iMmbnHuJocLPljsNAsVNr4rdpf4HixjqHuUjdTmtZYgpaxV5jb+ArHry9xp7MIURqh/iy5F5NzI2iZeI/5uX5kF9hgX3+PB83ut+8Gl0xiaeEWEl3p1NrMIhpxf3MNNXGBy0YiM0W9mNx+hubsvRoOS+4ltI+tYuY1v1X5NUbvViA/S36uwraFZ8PNaH60BsebL3i2OIX2slinVkfUzIx1JXnX8lypwcDTdTjefBPyH6pCoSJ/S3YWrt134OnLz1h8/SeM3a/FFYtQvsXMycx32HrqMOT4gMWNd3j8sBFFrnhRTr7kd1h8imUcJGQsEZcba5AUrpXwdJB8eBqW3Af75gRyPcbXQfOjdHsna5IJyYQw4B0DZ57MaENiYIxLhNFqw6QHmWEsGFbbBzie3sHljDQkF/Shf/6tRGYY0yNv+Btmx9qRmWxCgrkS7VMfMd6WHtDk7y89C4pETIIJsbmDsG87UJVsQiz/bYyEzrUocDLjWF3A9UorTKl5qHr0DiuzN5w34PIbibMH32F2ogs5aalIzG5A39I3jDYkOuvHWBRKH73F6EADLOlpMOU24fbqVwxVRgvxnMyszaHSkovGp58w2lmMlJoncLx6gEzFosTrsGQrVdXKiIOLsXQ0Le3gVpEuINnwdJZKG2a3drCytYPV7R2sur6vbEyg1hwJi9mImpG3WFx4gGtVVpQ19uDhy28Y60qTyAknMwtry7hzowRlFVdxY+o3rC70ociZXtDMeCMznOy0T72DfbQNtZW5KGvoxMiLb3h0I1XKv/T2Syw/t6O1zoqrNc2wrXzD5MBFF1niZOYbZmcfoLXmEsoaBzCx/jse3Uhxxouy8SW/w+BTzP+gIWPRyO1dweyrDdzprD4wqWGaIESW2jG/0IsEBW4OWi9K533CJtmQbAgD6hg482RG7HiW1AP7HjKThZbVz+iyCjtT7rtgGfigIDORKLfv4uG1hIAXaLE8HuZRXmYAACAASURBVDIWWHpfPjN8IVwZq0ewa5FgJt6OaRQaGBjj9X+PdousDbnQsIyVsVoYvCwqyTfewHHnioLM2JDOGNJubmOw1AAW045H23ZYFenN/e8x25frUwaMGVE1tYu75aE+n1PKx5JtwpUSC4ob7uHp9hJulFlQzH8XpyDXSUbyMPDiC2yN8sv1Sm6/xspkI3JcZiJOZlaetsLq+m0pvY2n23NovsjJkEBmOFmSP7/Ddk3W7IjaITEss21i8VGli6yk4sb8LsZuJErkJre6E3f7Sp3lCZqZXYx3maT46gfvpfRiWwOS3wHwKeZ/2FBvzEfl4BJmXm1gsLMapgA1NYxZ0LKyg+WtHSy/cKA6wxBw3x+2zpRefUInuZBczisGzjmZKUD3xiaa0mQy4OkzE1U+jWdv3mPC/gQ9N7tRnBMnaU0CAU0g6f2RGZF88PJYkAnZZQWI1XMyw+u/i5XNHSyLH67lmGxFhIuMhGV3YWBuC44334VntnZlsubUzNiQ5iIzt0v1EplRmuPMtz4ETGaGKsICXtBEAmHxYmaymMthe7OF/gqZfFzuWsCqwoGXkxmRfPD8LNkW1HVUoDhHJjOPBwsEksSJUokF+RcV+dXdwoPFt1jYFAnPLlZ+qXORGd8+MQKZcXcALh18jVV7gzO9iI+A5KdKZvzjUyxDLWQsCIWjCmy4MDLekqLaR0Exeagd2cTSg8qAjlZzzWNYrAmxpgxYOpYwb29ClIIEq9WJ/qPFljBAGDgODBCZ8UNmGNMiLKkQRQ29aLM5MPXmM4YqjKqLgVoHBZJ+P2RGWYZAZt7iRqHLPMVNVPwTHe5cjFhQIXpefcK91kKYTEKctX9z32Qms/895vov+WwzY7Gont7FUHmIz+eU9T84mbmBPIVmRklmxDydxMalmfFqZsquhG39M8YHK3C1VCA6jSNbR05mApLfsZAZDYKjPbCRYEJ0uLspkGskQ5PL0Tj8EnMvVtFdmuTTpKjsQ/E797+yb47jIpGZgPEvyo5CWtwJA4fHwDknMy4z0yVvZiYd9CEhCFK8myapcwMrI1V7dq66cCPCDe5HkxkLLD2L9X402+kz4zILeQJeMDN9RW+B++IkPsfiOzG+PYV8ncvhl2mQNfB+32Qmsf01Vh7WIMjHQsVYDjrWvqEnz10GYl3U5CMSD++aGS9mJru7menAZKa4D0+2Z9Hkcjy2mC+gZvSDgsyomJlqe2AbKFOYmfxrZgKSnyqZ8Y1PUbYHDTnRDk+rRtPoOubXVtHdWIiYfTi3K8t1OrOvj8LiAyPK5+n74SdvkiHJkDAgY+BMkxk+WQdHJSocgGdQxp2B44wI0XIzDXcA/oiFmSHJAfj2wm/yYs8SUTe3A7vtGiypSYhLL0HbzDdMdWe77b5YdCPuv9nFysptt/ds8NMiAaUPrsbdzS30lmUhjmtWFC8d801mDLAMvsPSs/vIN6chOaceXc8+Yaw51Vk/pi9B3/pH2JoLYErKhKVmBP0z8nt0nKeZ1vybmbTmIUyvTyIvVDbHeQ4ibcYgpjamURC+9xlv8vFPZtwdgK96cQD2R2a8Hc225NTg/sYnjA2Uo+zqZdR2j2N44U8SmeH1kxyAa624WtuKe6vfYO/P9mqGUjMzeZPfYfHp2Qf7/c3JcPPsc3Q3XjkwiRHLZLkP4Ph1CKlEZtzmBlE+FMqLDsmCZHEcGDjjZCYKFZMqR5+3X6I2QVh0NVGFaLVvYn7jE+xj15HXtiyRGS5wXUIlrts38OzNDpbWtzE2fB1pHos6Cy9B7+oXzNlbpSPVYmcFlJ4FwVT3BPZXrpfGKTQ/vsgML4OFZaHKtoqnr/jR5Q3Y+ipgVGhiogqGcH/lExbXtzE6WIPU2nmpfYGSGX7qpXTiM6aGqxHtyltsn7MO4Va0zX2BvdP9SLf4jDf5+CMzPN6Sexkd488xu/4NCy/XMTpU6XZ02tNnRszTmdbPS/O4Jqaw6QEmXnzG0p/ewf6wCRU9C25khvvgNA0vYPrVVyy+foOx+3UeR7P9a2a8yY+fNjssPkUZHyTkmkOdSn8eKK/0ATz90zzK4w37NlEdpDxKQwsiYYAwoMTAmSYzyobS98MBn4Vmo2HyAxxLcyhLlrUvEfn3ML72Bb8MXsUFhTkuEHkricdZ/K6UgTf5KZ85zd+5z1S+bQOL2ztYeUB3M53mvqS6H26uJPn9GPkRmaGLJgNWizNNCGIvXYM1SUFmsmuRl3Zhjw9RIAP6LBIYZZs8ZaAmP89nTvNv7kgcFG6EUWEmPc3tobr/mEWJ5E5yPwgGiMwQmQmYzBwEYL7SKBf+s/jdV9spjiZswgBhgDBwdBggMkNkhshMlvxSvqMkVTRRHd1ERbIkWRIGCAO+MEBkhsgMkRkiMz8MA74mJ4qjxYswQBgIFANEZojM/LCF7Ci1ID9jXoEOQnqOJmzCAGGAMHA4DJwLMhMeHv7DFmwC6OEASvIj+REGCAOEAcKAPwwQmSHNDBE9wgBhgDBAGCAMnGoMEJkhAJ9qAPtj6xRPOzrCAGGAMHD2MUBkhsgMkRnCAGGAMEAYIAycagwQmSEAnwoAR5gbUFV/BTH7fMsw7chOx46M+vd09NNZHU9HgT9DQikahhbRbJVfKirK66D5x9XbMdjdiJQI9Qt8xfwp/GsQmTlmMsOCM3F1aBlTr77CsbaOoZvl0t1JPzsAGUtD05Jwt9Xq1u+YW1pBT50FIfu8TJDFeb8VPBAZ8DfLxhcPoqu/GanB8kQR27yG52//7Pysbs+j2OPOLG3eIzjW7iNDUV8W3YaH28soj5LzCaQOZ/EZ6t/TQSB8jR+aX/4avuQTyLg96PyizDvEfBOja28w0FKG+BD3ucVb/sr04vfEDvkiYP6fLtqKstvPMbfwELnRRGhEOamFRGaOmcykdm9iYVq4lTsxpwm3V79jvDnlVGhDhMVuB7erE2GMT0Fq0QBGXn/EraLIfdX/sJONGnD5f9pQo3AjurkX4ypkhoXUYWjrJeri5clFXzyJ5YU+JCgIjrf8z/r/1L+nn8zQ/HJ4MuNtnPubX8R0TJeN9pWPuF1qPPQlq55khpfBWAgyetcxP1Kx742kWMfzEBKZOUYyw1gkyuy7sFXKR8Mv5PfiRl22dJcRC81CpY1rbr7A8WIdQ92lbqYUrbEELWOvMLfxFY5fX+JOZxGiNPLirDGWoP3xOuY2vmN5fQujtmswGeR4FpyOq3eWMLn2xZl+sKMAka70wmL2AR3lFeiZew/H6y2MDFTC6DLliItdb4GcX1LnBpaHywOqP8sYxPS2yq3l8z3S7eL+2nehfkmhfbHjkgoJYdGtGFUjMywetbM7GCoPk8hXZt97zN26LE06vuQTyATgV/7Uvz7x+7P3byAY8PWMLr4KN55swrHxAeO2BmQ3L0u31vN0vsa/v/FD88uPnV/Efg8umcTSwi0kKuZlMc4fvjUX8tE8sYH5jY+wj7TiStcrN3yI+bCIRtzfXENNnDwXS3E6LUYaDPhSpkOcyvwoPnfWQyIzx0pmNDDfeo/5iVbEKQiGCCrGDMgefIfZiS7kpKUiMbsBfUvfMNqQ6Fx8GYtC6aO3GB1ogCU9DaZcrtn5iqHKaFe8HnnD3zA71o7MZBMSzJVon/qI8bZ0Kd58awuOGRvyMtKQZG3H3RdfYasyuuK5GekLJh/bUGxJR9LlHtx/9TtslVGK+B0oyUxEjQOrky0IZwx+6x8UiZgEE2JzB2HfdqAq2YRY/tsYCZ0zve/2cTlpQ2IE7YvVhsnt/ZEZnj6tZwvzgwVO8sJYIurmvuNWkSEg+Yj95C1kzJ/8qX994ffn7998dL3ewfKmx8fe7MS/N1yI/zNmRLn9O+bsvbiYnobk/B50T29Ki9Xhxw/NLz96fuF9ndK9iSVbqbRBEvufh77mL8aCYbV9gOPpHVzOSENyQR/6599K+FDmw1g6mpZ2cKtI55y73OIMWsy3GvBHnQ5pRGaOV936o19a9yPLZ5GF6Jj7jOW1NQx0NyIjOkgCI2NZaFl9j3aLzLYvNCxjZawWBi+gTL7xBo47V1yLcSTK7bt4eC1BytMN5MyMltXP6LqkleLjW9awPFLlIhOCT8y9atlslNn3myJ/Hq9GZloR4SQjgdV/P2YmZfvc2pLUA/sByIyuYByLjj7E8/pys9PmAq5GCPJmfuSjLF/tO98Z+5Z/YPJR5q1sv//8qX+Pt3+DERHvIuCchIuf6HBJM6nsO8/vTFuC/s0tNKfL4zuz/720WAU6/n2NH5pf9mdmUo4vZX+xA84vPA9z/3vM9uVKc6wyX/G7Wv5C/39Gl1WYn7lvjWXgg4QPMS0POTGumtrF3fJQ1XKC9Bpc0Mk4U6Y9L99JM3OMmhkRREwbCdOVdnTYt7C8/hx16aJmoADdG7tYUe78tnawOimQBZ4+LLsLA3NbcLz5LuwQt3bdwB5VPo1nb95jwv4EPTe7UZwT5yQqPC1jPP9NNKXJIA+rnpfyVzMjJbS9xOpwhXPAqMULmhmRzPivv7MePhyA/bVPkuEBJxsWVo97Ww6UhDNorCNwKExc/uQjlu0r9C9/6l9f+BVlqzbZS3FezIg8/rj7V6zDQUIWXIuhbXfTgNInQsCfb3w42+hj/DjjaX7B+PY0CoLkeU7sr+OeX3g55lsfDkhm9s7PSnyIbXD2sYvMDFXIJnNlPH2n00yqLPe4gME0Eci5s4XlsXqEOjUbHMxvcaNQsevjuz/Xzo8FFaLn1Sfcay2EySQ8Y+2X1dQCyLUISypEUUMv2mwOTL35jKEK0Yy0d7AIZEY0E+3VvARGZsT0vusvytHbzjKQ9kl5HJTMOE1LX9B9WQc+UcwodlDeyYzQPrFsXyFj/uRP/esLv6JsD0xmjrF/GTukmUlXhoHNDTQmy4ssN3su37vq2iwcbvyIshNDml9kOXOZnMT8wsvh2ra5/ks+1xI1fKvNP97JTCyqp3cxVB7isxwRC+cxJM3MMWpmmPYiakceoFDhtBVU+gSrC73O0zSCmvEregv22kGdgzG+E+PbU8h3qQ+5GjJrQKmm1kEfEoIgxbtXuIPuykiVUw3u1YzyoFJhZnI3I/kjM8mdG1i6X+bKn5tRvNdfHFAsVv1oNvPTPjG9Uxa+yExUi6oDsJg+o/cd7J35uGrndVWa+byYaVzyEdN7CxnzJ3/f8vHXfv/5+66/mmaN+ncNywH37yHNTE6itYPJoQoYg3UwxFeg89knBZnxjQ8Rd17HD80vAin8wfNLYvtrrDysQZAX1wDej+pkhve/7Abg28yUg461b+jJ23s8mzGGzEQd6hM05/q0E5GZ4yQzLBbl9q+YHe/CxfRUJJor0THzFbODhU7gcwdAy+A7LD27j3xzGpJz6tH17BPGmlOFQaovQd/6R9iaC2BKyoSlZgT9M/J7CASH1h3YbddgSU1CXHoJ2ma+Yao7W0jP9BAcgIecDsAm0QG4WtTcBKaZ8TyaPVAs+Nj4q780GQdX4+7mFnrLshDHNU9Rwu6C+W2fFsFRiQoH4BmUxfHfRoQoCBz3Teh78xGDNZmIVYnXFU5g0T6Du+vzKA6Xd2/cgdeXfMT6ewv9y5/61zd+f+7+9dbv+/k/2NyNkbUdrG7vwPHMhqq+lwoy4xsfYjnM2/ih+UWY57zJ54TmF615CNPrk8jzeM8V19r6mr8EB+CPWJgRXt3BHYBvL/wm4UPsfx5qMwYxtTGNAsX8JcYznRZz7Qa8zdWoOiGLz531kMjMMZIZDh5NdD4aR17g6Wv+0rxNPBhqQYoC9CwsC1W2VTx99RULaxuw9VVIL9XjTD2qYAj3Vz5hcX0bo4M1SK2ddwO7LqES1+0bePZmB0vr2xgbvo40Zf7BmSgTX9r34hXudF5BlI+j13t37vJL854tL+Nmg8VpIhMHhq/6S8+wIJjqnsD+6rvwgjtJc+S7ffw0V8WkytHu7ZeoTVCSEi3iyscxvvYVK9u7WPWMdx5r3MHy3A0YPXZP/KVj3uQj1t9X6Ff+1L9e8Xsa+tdX3wcax3QhiIiOhF7DkH7zLZ4N5DkXYZ7+MOOHp6f5hfsG/uD5hUWjdOIzpoarEa1wwg0E35qoQrTaNzG/8Qn2sevIa3M/uu/ESLgVbXNfYO80qzqea2J1+NahR48K0QkUo2fhOSIzx0xmzgJIqA3He9qP5Ht25cu1l+FGrk00IenSDdjWPmOgOEIiM9T3Z6PvWWg2GiY/wLE0hzKFj9Rh+zci/x7G177gl8GruKDQRivzTcvR449K3Z6NmvKZ8/CdyAyRGZpYCQOEgWPCAGO5uL7GtYXf4fh1Dbfb8pyvNTgPi8t5ayPThCD20jVYk2St8WFlEJFdi7y0C6oaGZ431943lxswn7rXl+awZZ+29ERmjmkSO21AoPqejR0i9SP1I2GAMHAeMUBkhsgM7coJA4QBwgBhgDBwqjFAZIYAfKoBfB53INRm2nkTBggDhAF3DBCZITJDZIYwQBggDBAGCAOnGgNEZgjApxrAtDtx352QPEgehAHCwHnEAJEZIjNEZggDhAHCAGGAMHCqMUBkhgB8qgF8Hncg1GbaeRMGCAOEAXcMEJkhMkNkhjBw5jHAWAhSG+0Yf/4JS8MVXt/bQQuE+wJB8iB5nBYMEJk5oYUsOkaLzkwtEjVH90IlT5AZEkrRMLSIZuvxleFZ5nn5HWFuQFX9FcR4eQvneZHDSbczrt6Owe5GpEQc7qVgLOEGftlcQ1u+GfGuu8FOui1UHhEDwsDxYYDIzAmQGX6raUqSDmN5OuQo7u4Qgc3jL+Xo8VuLAX9//W/wl9YgXPG4Q0h81lsYYr6J0bU3GGgpQ3zI2SAzwq3P8t1Qc0sr6Kmz7PtmWBanfmu3N1l6/s/fshlfPIiu/makBsuyjW1ec9419fztn7G6PY9ixZ1YPA9t3iM41u4jQ9GXLLoND7eXUR4l5+NZ3n5/M2ZE1dQu5m5d/qk0LMkWvRPPTkx36NEY5N5mf/FcDrpoK8puP8fcwkPkRh+c0DDrAzie30WKoi/2K2d6/vgWIpItyfawGCAycwJkxl8nMYMOKx16PDJpYArXwBTGELyPSZfpstG+8hG3S41n6tZUgczswPPW7ltFwq3d/uQqxh+WzIj5eIbaUKNwo7e5F+MqZIaF1GFo6yXq4uVFXF88ieWFPiTso389y/X8zVgMKjmZ6b/0U5EZnd6F5xgd1lXIjL94sZ3cRJTRu475kYp9E1kpD/NdzL4egfkI5S7mTSEtxISBH48BIjPHTGaMmcrdaRDKVSZTFq7DRkcQag5owggumcTSwi1VE5bGWIL2x+uY2/iO5fUtjNquwWSQF1cWmoVK2zKmXn2B48U6hrpL3UwpWmMJWsZeYW7jKxy/vsSdziJEKUxlfvMPTsfVO0uYXPviTD/YUYBIV3qBrHxAR3kFeubew/F6CyMDlTD6uNU7qXMDy8Plks+Dr/qzjEFMb6vcuj3fg1hXP/hr34X6JYX2xY5Lav0X3YpRNTLD4lE7u4Oh8jCJZGT2vXdqUDSufJgP+QQ6QTIWjquPdzHVnSWVE2haX89xjdSdBj1GUrV4XKvHboseL/K1MEn9p0F/nQHTybLGJPuSAbuFWrd6sBAd1lTIjFi2v3j+HHPefL6GmjgZu2L6QEKW3Af75gRyVfovkPT0zI9frKgPqA98YYDIzDGTGW2Qa3caF4R3He5khkXr8L7dgD/aDfhLhxDy73+0BKFwH5NuSvcmlmyle7QyjOmRN/wNs2PtyEw2IcFcifapjxhvS3cuNvxG3+zBd5id6EJOWioSsxvQt/QNow2JrvgolD56i9GBBljS02DKbcLt1a8Yqox2xfvLXw/zrS04ZmzIy0hDkrUdd198ha3K6EqfhqalL5h8bEOxJR1Jl3tw/9XvsFVGKeJ30FsgL2ARNQ6sTrYgnDH4rX9QJGISTIjNHYR924GqZBNi+W9jJHTO9L7bxweONiRG0L5YbZjc3h+Z4enTerYwP1jg7BvGElE39x23igyS/HzJx9fAVcYxpkPh6C4mWpKd+YpxjOWj6/UOljc9PvZmp/zE57yFIpl5Vx6ERqMG5gQdVlsMWEgTyAuPPzEyw9LRtLSDW0U6tzZ6q7vyf6YJQmSpHfMLvUeqEVOWQd9poSUM/FgMEJk5ZjIjApxF6rDlSWa0GiSGa5Acp8Nmhx6dFzRI5r/DNfsyM5n732O2L3fPJM9YJMrtu3h4LWFPHK8XY1loWX2PdotMFi40LGNlrBYGL2Qq+cYbOO5ccebnP38zWlY/o+uSvFOPb1nD8kiVi0xwMrOLe9Wy2Siz7zdF/jxejcy0Om8eDrT++zEzKdsn9p1TVkk9sB+AzOgKxrHo6EM8J0/c7LS5gKsRgrwZ8y0fZfn+vlttv2OkQSCJ4rOMBSMi3kXgOIkTP9HhkmZLfFYtFMiMAcvpsubl8mVZ83KyZEbwC7pbHqqKZfX6W9CysoPlrR0sv3CgOkMgkWrP0n8/diEi+ZP8D4sBIjM/kMyInXdYM5P51gdVMsPzjyqfxrM37zFhf4Kem90ozolzEgkex1gBujd2saLcuW/tYHVSIAv8mbDsLgzMbcHx5ruww9/axfK9q9KC4j//TTSlyWQprHpeyl/0iVFqXhLaXmJ1uMJFlvyRGf/1d7bThwOwv/bx9M48DkhmWFg97m05UBLOoLGOwKEwcQny9y4fsexAQk5o97PQB5KnSGbsiXL/peXo8ZdigZz+CDIzVCGb7Py1gWsmw2JNiDVlwNKxhHl7E6K8kHR/eVE8LbaEgZ8bA0RmzgCZyex/79X5kzEtwpIKUdTQizabA1NvPmOoQjTzcDLwFjcKFbt2vnt37dxZUCF6Xn3CvdZCmEzCM9b+TTcy4z9/tcVaNBPtJSuBkRkxve/6i5OPN81MIO2T8jgomXGalr6g+7IOiR3rmFFo0LyTGaF9YtmBhCldb9BfJGvAeJqjMTMZ8HOQmVhUT+9iqDxEItKByEV8hiX3wr45jotEZg4kP1GOFP7cC/p57h8iM2eAzCS2v8bKwxoEeUzU3JdCHxKCIIVjMXegXRmpcpoZBDPNV/QWqPshsPhOjG9PId91nJzvxLMG3ktkxn/+XswoDyoVZiZ3M5I/MpPcuYGl+2UB1V8c2CxW/Wi2v/aJ6XnIfJGZqBZVB2AxfUbvO9g783HVzmUdJC0mXs1MLvmI6Q8aHpWZyTuZYeiolH1oeD0L8w34eEk2S/H/JAdfvazhUbbJX7wzD5aDjrVv6Mlzz1uZj6/vTmfw9VFYPMaIrzQURws3YeD0YIDIzDGSGf7+mNAQdwfgVn70OlyDcMWJoMOambTmIUyvTyLP4z0ngsPpDuy2a7CkJiEuvQRtM98w1Z3tXFC5A61l8B2Wnt1HvjkNyTn16Hr2CWPNqUK8vgR96x9hay6AKSkTlpoR9M+sK8gMd2j1lb/oADzkdAA2iQ7A1aJmKDDNjOfR7IFiwcfGX/3FiYgFV+Pu5hZ6y7IQxzVPrpemMb/t0yI4KlHhADyDsjj+24gQBUFk2hL0vfmIwZpMxKrE6wonsGifwd31eRSHyws6N4MIDsDq8hHrH0ioDY1CuOFgC723/P2ZmXg680U9/rZGh8poDTLjdVhuNmDSJLeRP8M0Wky2GTCboUGSGv79xPM8tBmDmNqYRoFCft7qrfY/y30Ax69DSCUyI5FpNTnRf6dn8aa+cu8rIjPHTGb4zpW/NEz5+UuHHjcVk/JhyQxj0Sid+Iyp4WpEe7yUT5dQiev2DTx7s4Ol9W2MDV9HmoL0sLAsVNlW8fTVVyysbcDWVwGjQhMTVTCE+yufsLi+jdHBGqTWzktkhg8mv/kHZ6JsiB/9/grHi1e403kFUT6OXu/VzMgvzXu2vIybDRaEKhYkX/UXBztjQTDVPYH91XfnMetVSTOlga/2MRaFikmVo93bL1GbIC/Y3NQWVz6O8bWvWNnexapnvPNY8Q6W527AqKg7rx/zIR+x/v5CpslF2+rvcIzWusnGXzp/8YGQGRakQUthED60GLBzTY/5i1pEe7aRMSSnBmG9yYA/OvjJPQ/8+4sPt6Jt7gvsneaAHJfV2sXSB/D0T/MojzfsOfWn9jz9575QkDxIHj87BojMHCOZOcnOZ6HZaJj8AMfSHMqS5YX2JOtAZdGEd9QYiMi/h/G1L/hl8CouKLRh+y2HsVjk2zawuL2DlQd0N9N+5UfP09j+2TFAZOaMkBkONKYJQeyla7AmEZn52Qce1S+wxSEiuxZ5aRcOrJFRyplrmoLCjTDS3UxkajpD874S4+f5O5EZAjVNbIQBwgBhgDBAGDjVGCAyQwA+1QA+zzsRantg2h2SE8mJMHD2MUBkhsgMkRnCAGGAMEAYIAycagwQmSEAn2oA047r7O+4qI+pjwkDhAF/GCAycwJkJjw8nAjDCcjZH9gpniZEwgBhgDBwNjFAZOYEFlkiM2dz8NCkSP1KGCAMEAZ+DgwQmSEyQ1qjE8AATXg/x4RH/fBj+kGj0cBgMCA4OJg+JygDLnMu+/OAeyIzJ7CQkWbmx0yg52EAUxsJWz87BvhiSiTmx5K480BoiMwQmTkXrP1nn/CPon6GhFI0DC2i2br3pYkR5gZU1V9BzCHeonsUdaQ8Dka+TnP/nTaNjMGQitKOUqQekSbpqPNTEkNDaik66q2I8VNX3gc/09iLq7djsLsRKRFHpzUiMnOOyUx01gQm2391fuxt93A5aO8i6DkA4rLteHzlknNgMBaBKxXPpTykvGoa9tzP45nPfn6zsBrcabuLi+dsIWZs70Wc3uQWYr6J0bU3GGgpQ3yIez/yN9/GFw+iq78ZqcHucZ75JXbIF4l6xp2334L85bvB5pZW0FNnQYjH3VP+5MLi1G9t95dOjPfWf7HNa867xp6//TNWt+dRrLhzjafV5j2CY+0+MhT1ZdFteLi9jPIo8MDD7QAAGc9JREFU3zgQyz6KULn4nobvSvIhfK+HNcbdRGaIsaI+ABLB26vM76jbHyiZ4eUeRV/yPJIteumuQX7PWqPHuuEvnuehi7ai7PZzzC08RG700RAaIjPnmMxo9VGICjMiKqYRg4cgMzfNiUI+PC/+CQk9ktfPi4OPyIzvhYfpstG+8hG3S42HvkSRyIysORHJpOet7beKhFvbRXz6Cw9LZrzlrw01Cje6m3sxrkJmWEgdhrZeoi5exo++eBLLC31IUBAcb/kf1f9HvYAfd35K8kFkRh4PIh50eg1M4RqYYnRYVyEz/uLFfBgLQUbvOuZHKva9QRDzUIZEZs44mdGGWlFT+hijzYsYa3yMGxcvIlIjT24cDCykEv1eyIwm2IKaq5N41OyArbgS1tzHezQzN1K8qzD9lc+0scix2mBrXMB4ox3d1kvShYIsqhXDbb41PyzIhIL8EdxrXMBY4y/ozMlGhKJ9iblPMXy5CNb8cYw2L2Ckuh8FkUJ9WVgd7rSNozhMloc2vguPmvtgDkALJCx2H9BRVoaumXdw8JvF79Qi1rVTYcyEhvldDBTrpF1RSvcmHHeuSL81xhK0P17H3MZ3LK9vYdR2DSaDUB8h/++4Wcvzf+/Mf+R2pXSruTiQg0smsbRwC4mKdotxF+qXFLt3Oy55LGKaC/lontjA/MZH2EdacaXrldut6GI+Bw19tY/nyUKzUGnjt6p/gePFOoa6S91MYVpjCVrGXmFu4yscv77Enc4iRCna6Tf/4HRcvbOEybUvzvSDHQUS/qX+K69Az9x7OF5vYWSgEkZX34tkprdAxkdS5waWh8slsu6r/ixjENPbKreuz/cg1tUP/trnr/+cMoxuxagamWHxqJ3dwVB5mIS3zL73mLt1WSK9zId8DtrnnumOm3wcdf5nncxwTd+dBj1GUrV4XKvHboseL/K1MLnGFY/vrzNgOlnWmGRfMmC3UCvhyIm7EB3WVMiM2P/MT7wzj4hG3N9cQ02cPMak9DotRhoM+FKmQ5zHvCU+owyJzJxhMsPNQHklM7iVV4L0qETExZWjo2ERXanuO0tvZIYxA7IKn2G8shXZUYlISGhEW81MwGQmkPJjLRN4XNeHy8ZExBqL0FS7iEFLgnPQMG04osJjER3XAlvbMIojYxHNf4eGORcTxoKQenka41XtyIlORHxcNW40LqI7LUoadJzMjDc8QGNqJuIuZKGoZBb26jqnGYyxSFwpX8Hd7EShPKZFZv48HhVclBYr5WDx/C4sdl8wOXEHRZY0mKztuPviOx7Uxbny801mGNMjb/gbZsfakZlsQoK5Eu1THzHelu5Kz81M3zBlt6HYko6kyz24/+p3DFXK7eN14gRpyVYqLVDKempDYoTdu9WGyW13MsNYMKy2D3A8vYPLGWlILuhD//zbIyMz/ttnQPbgO8xOdCEnLRWJ2Q3oW/qG0QaxP6JQ+ugtRgcaYElPgym3CbdXv2KoMtolH3/y08N8awuOGRvyMtKQ5Oyfr7BVGRXy/YLJx+7ytbnkq0ZmImocWJ1sQThj4OPDZ/2DIhGTYEJs7iDs2w5UJZsQy38bI6FzpvfdPt6PvvpP7Gfmhczw+LSeLcwPFjixwVgi6ua+41aRi8wz3/IR8z9sqEY2JI1HqhX1HR24fv06SlMN4GYT/p1/6q0xkuOw06zjek58lucr5WPdm05II/u+qP8Wyt6bp5BOyt+HmclgiIG1vgOlqdzXxnd+cp3l5zo8/HO8tVUtLa+36DMjpNtrEhPlL/ajSGbelQeh0aiBOUGH1RYDFtIE8nKiZIalo2lpB7eK5A2fVE+DFvOtBvxRp0MakRlBRfajTxP96PJFcPAw4eITjOfnOCdz8X/vZCYFNQ0LuBYnMHIO8vS8Z3vIjL11BY8Vn9tZsW75i+V4ls/YBRRVPkd3aqj0vD6mHA2ZZhgU4PVmZmIs2a1+PH8jJ0fFBc7Fgv/mZMZeWizlxyIaYGsbQq5O2AmEpNzF4/pWp9qdaXPQ0uTAtfi9A0vZBvG7sNjtwlYpvxQxvmUNKyNVrsXKH5mJRLl9Fw+vCeRNzFcMxfzvVcvkM7PvNzfNDn/W3P8es325kgzF9MqQJfXAvofMZKFl9TO6rHL/WgY+HCGZ8dc+Xv57tFvkXdmFhmWsjNVK/aVsA/+efOON1H5ORn3Lzyy075K8o+T9syz1DyeLu/AmX+9kphURTjISWP33Y2ZStk/ZdrX+E+N9kRldwTgWHX2I5/XlZqfNBVyNEOTNmG/5iPkfNhQXU2UokIQOeSF2kZiO0lQngVESDydZKJWdXJ1+Ii4CIOXjlk5Y0JV5OIkA93OR0sXA6jPP/ZMZJSnZW0dlfh3uRI078QZcL06aZP+d1FKFDJ3tC5TMGLCcLmteLl+WNS8nS2aMqJraxd1yeQ1Q4i1Ir8EF11yt/F/tO2lmzrBmhnd4qLEOHdXTGGtxEY625xIZEQHhncxko6n5KaoUzoJqDsD9lhRBY8K1JuGxiDTIZMBX+XynWFW3gpZEeTET66QMvZOZvfULTbsHe0UlwlxkyKmZUZA3btbKSMlGtGuAMJ0Vbc2zqDdqoUvoxXhjF1IDMDHx+qktdmHV84qdu28yw/OIKp/GszfvMWF/gp6b3SjOiZOImFr+CW0vsTpc4UZczLc+HJDMFKB7YxNNabL8j9pnxnf7ePm7WNncwbL42drB6qRAFrh8wrK7MDC3Bceb78IzW7tuZMt//u7tE/pHJCN7HayV8lWTv6CZEdP7r78TJz4cgP21j6d35qFCRqU4H5oZFlaPe1sOlIQzaKwjcChMXIzt7X+lfMT8DxsqSYz43VPj4e83TxdjrZe0NvLiz7Uh8gIuaEn8kxmxHt7zVJIPOX8xnZMouRyAZc2MTDKU/wltc+WncvpI+ayYv2q91NKq/Cfm4RmK/ShoZgywK+bdtBw9/lIsb2pOzMzEBDIzVCGbQsV67jckMnOGyQzTZqP5mgM3LTmIjxCIRtblqSMnMz1p6kD0V/6xkZnyCoR6ITOeA4QxrVPb9DDvIiyFCxi5lBmQiYnno7bY7ZfM8PLDkgpR1NCLNpsDU28+Y6hCaQbZgdJnQ7nYim3J7H+PuX7hhJn4n2eotrNXW8yOmsz4bh9fTN/iRqHL/MJNMPwTHS6YEYMK0fPqE+61FsJkEuKs/ZtuZMZ//mpkRjQTHZTMiOl911/sA2+aGRZA+6Q8DkpmnKalL+i+rAPv2xmFBk+t/5X4Fcs+bOi5qPLf/siLMl7QsMjaDKXGRfmckC83+fgnM/7zFMmMaEKSiYqzHAWJUCMjyv8CIzPKOntpq6JMUaYHOc30c5GZWFRP72KoPMRtg3YQzBGZOctkJrwWg213kKNw7EpTmIlEwLCQCtxqu4/LenmHzuMYC8zM5JXM+Clf3cxUjWtZFjczA9fMDKoczfZqZioqkAiJp2ZGbLMy1ES3YLh+GL0Ns6iNkVWvymd04UaEG9zjBDLjYWZqfakwM0WhYtI93jLwEdM3BTMfYzroQ0IQpNAEcQdTbqbSOs0YvhdbsX6J7a+x8rAGQQrTnBgnhupkxmVmcplh+CSnZmbi/xdk6tCfqtnXqQP/7ePlf0VvgazJE+vLQxbfifHtKeSLWjSmQdbAe4nM+M/fixnlQaXLDOhbvmpkNblzA0v3y1z947v+YltYrPrRbH/tE9M7ZeGLzES1qDoAi+kzet/B3pmPq3Yu6yBp0fBqZnLJR0x/0P4X04sLrzLcS0I8NSzyb88Fm2stAtfMyFoVt3QexMAtzuM9M8o4J5FxxisIh8tnRjSR8WeUadzIjEdaZ36Kuvhvq2xmEgnTwXxmfGlmGDoqZR8a3o+F+QZ8vOQx/4kOvh7rhtjvkgOwl3j+HGM56Fj7hp4897yFOIbMRB3qEwKbd4jMnGUyo7OitdmBnqxsxEUmIz29C21V8ntiJNBprGhtceB6ejKinceroxCsERwcswrnMVHVLjgAJzaio3ZO0uyI75nxSmYCKF9yAI5JRGxMMVpqF3E7S3CgleqnK8SN1mm0pqQghpuyQoR3JnhzAO7xdABWmJnEPJUhY7Eor3kOe0MrTCqEgEU34v6bXays3EaKIl5Y7H7HtN2GK1kuB+C173hQL9c/6fo6lubuOR1sTdYu3Hv5CX2Fgn1YcMjcgd12DZbUJMSll6Bt5humurMF04LKe2bUNDNa8xCm1yeR5/GeEa61CI5KVDgAz6Asjv82IkTL+5c7AH/EwsyQ5AB8e+E3iSyIMmJBOjjaDfhT9t4JR3xGLfTfPgMsg++w9Ow+8s1pSM6pR9ezTxhrThXary9B3/pH2JoLYErKhKVmBP0z8ntw/OcvOrgOOR2ABQftr7BVB6b5EsmM59HsgWLBh4k7APuqvygTFlyNu5tb6C3LQhzXPEUJu1Dmt32++0/KX1uCvjcfMViTiVhF/4rxusIJLNpncHd9HsXh8oaFO2gLDtLq8hHTH7T/xfRKEiN+3xeZcZEF7uzKP/WlpQrfF5n0OImB81l3AqOeTtC4qMfxPAXNjFhf7psiPuusg9I5WXQALpWdkEWyJdTJPT+h7XJ+7s96r5czL4WDdAc3r1nll+YJ2ia57WLdxVDsD3+aGf6c+aIef1ujQ2W0BpnxOiw3GzBpkrHDn2EaLSbbDJjN0CCJH9UO1yBccdLQXzzPQ5sxiKmNaRQocCnVU6fFXLsBb3M1qocbxOfEkMjMWSYzTIPIxHb01jsw0TSN/vwrMKXfk8iICAK+6MWk9GKwcRH2tuewtz3GVRe4NCHZqC2fEo5ml9YgJ3tUSu+XzARQvvNo9uX7qkez5frpEJ8xCFvTsvCCv2JZ88KCklBQMIr71xYx7jx6niMdveXpA9HM8EX9UukK7uWmSLtWsWwesvAS9K5+wZy9VTpS6/zfSTZ+R29DNW7OvcfC+juMDdUjXvESKRachqtDy3j66iscL17hTkeB03lUzF+XUInr9g08e7ODpfVtjA1fR5qLlIiLqT8zE2PRKJ34jKnhaskXSKifoBniL1VTfla3X6I2QZiYNFGFaLVvYn7jE+xj15HXtryHzGjjg7DTocd1D7IktsFX6Kt9zjqGZaHKtuqUz8LaBmx9FdLRcz7pRhUM4f7KJyzyY++DNUitnXern9/8gzNRNsSPfrvk33kFUT6OXivJoiB/+aV5z5aXcbPBIpkw/dVflAsn3aa6J7C/+u7sh1VJ8+a7fYz57z9nHZgWceXjGF/7ipXtXSj71xnvPP66g+W5GzAqyLgzzod8xPofpv95HuJielZDUUOidMz9Gdsq9mcgZIYFadBSGIQPLQbsXNNj/qJ2z4tQGWNITg3CepMBf3QYwF+gd1NBSvzGh1vRNvcF9k6zpEkX68hDTawO3zr06FHkqYz3/E5k5gyTGc/Opt97XwDFZcIMRehufYKKSPedhz95qZENf2mOK56FZqNh8gMcS3MoS95fO/zVKf2iHn9XoUWUx0LoLx3Fq+PttMnlsP3/My7sR1mn00Zmfgb8ReTfw/jaF/wyeFV6r5hnvbhT8h+Vuj0E3PM58TeRGSIzqtoIESDnIQxNs+FxXaOb1iWQdv9MZIbXl2lCEHvpGqxJR0dm+C6upcKAZyn7MzEFIj965ucnO0fR/6ftbqb9Ep3TQGZ+truZIrJrkZd2QVUj45zLmAbN5QbMpwY+7xCZITJz7skMLao//6JKfXR6+4huzf6xN2Zzcka3Zh/RQv+jXxp33sunheD0LgTUd9R3ZwEDfDE96xqa/Wp0TuJ5LvPzQGT4GCHNzBERNl8Tzo8mU77qRnG0WBIGCAOEAcLAaccAkRkiM2RmOgEMnPaJgupPix1hgDDwM2OAyAwtZERmCAOEAcIAYYAwcKoxQGSGAHyqAfwz7xSobrSTJQwQBggDJ4MBIjNEZojMEAYIA4QBwgBh4FRjgMjMMQKYMQtalj9j1vEMLXnCK9SJpZ8MSyc5k5wJA4QBwsD5wQCRmWMlM3qExafBfG0W8+sPka24t4IG2fkZZNTX1NeEAcIAYeB4MUBk5hjJjAheFtmEB9sOlIQd3ZtZxbwpPN4BQvIl+RIGCAOEgZ8fA0RmToLMxF3H+PZT5CsuIKTB8fMPDuoj6iPCAGGAMHA6MEBk5iTITHIvJjfHcZEu6jvVDmY0qZ2OSY36ifqJMHD+MEBk5iTITEQdbJurqE0KgYYIDRGaE8AcTebnbzKnPqc+P88YIDJzAgsLYzrEVjzGk41drGzuYPlBhdfbQs8zGKntNBkTBggDhAHCwEEwQGTmJMiMoRA9axvoKs5CQoIJsVEhpJ04AbkfZEBQGppICQOEAcLA6cMAkZkTWFRZch/s5DNDBO4EsEaT8OmbhKnPqM8IA4fHAJGZE1hgWHwXJrafIF9LR7Np0B5+0JIMSYaEAcIAYcAdA0RmToLMXGjCCL1nhjQzJ4A1muDcJziSB8mDMHA+MEBk5pgXGO78G5H/EDObdlwizQwRmmPGG03c52Pipn6mfiYMuGOAyMwxLi7Ou5lWd7C6+f+3d7cvbV0BHMf/n7PkmkAWU2lJoit1c9VinzArrLCaPWhtXbu1w4mlVGY3FMGuqX3Q2jGbgS8UQvauUtA3/ad+I0JerDfRluRe7zn3+0pQo+acz02+53iTW9fC1LA8XpZNzATojQe3/z+4MR6MBwbiY4CYCfDJxZiUsvmietNJnsQDHGcesOLzgMVcM9cYwEArA8QMT7KEFgYwgAEMYMBqA8QMgK0G3KrQ+RwrNwxgAAPxMkDMEDPEDAYwgAEMYMBqA8QMgK0GzOorXqsv5pv5xgAGWhmIRcy0uuN8jgMCAxjAAAYw4IYBYoadGXZmMIABDGAAA1YbIGYAbDVgVlVurKqYR+YRAxjoxIDTMXPwpnWbb7T26qVujeV50ibcMIABDGAAAw4acDxmUsr2D2nk5po2tpc1mvBf6LF4vaL5X2/o81wC4A4C76T0uS0rRQxgAAN2GHA6ZpoIzYlpLba50KN36pKuPfhH638t6+IpgqY5Zny04wBmnpgnDGAAA58oHjFTvKuV+jOVevw7Mw0ExmR0dm5bG0tlZbh+EjtU7FBhAAMYwIBVBuIRM4NzelJb0YVDQsXkbuiP2pZ+KPqDx3hJLU2ltXvNU/GQn0Eds0LCAAYwgAEMhG8gHjGTm9TDWlUTZzJKtIkRY77U9N97uv+156tRk05q43Za7yY9DbW5PXjDx8uYM+YYwAAGMNAwEI+YMZ4K5cda3dnX69qeNhfLSr4XJcbk9d3Tff02/qkvZhoD1ZNKqM/z79pwIHEgYQADGMAABo7XQDxiJn1Fs1s7mrl6TgMDp1U4mfEFSzNmFspZ39dAerxIGX/GHwMYwAAGDjMQj5gZvKfKUefMmIK+f76vhXF/6Bw2gHyNAwwDGMAABjBwvAbiETP9M3pUX1Up2f7fRMac152tt5od87882xij4c88XR9I8GonzvBn5w4DGMAABiJmIB4x0zetpTbvM9Os6eTZeT3dea6vev3B03g10/rPaf17MdH2BOLmz+Hj8dY548/4YwADGIifAedjxhhPudKyXtQqutxmZ8b0XtJP67uq/DLiOzG4cVAkCp7e3klptkXocNDE76BhzplzDGAAA9Ey4HTMHFybqbqnaq2uhalhee+9gqmBMVf6XStbu/pz/hv1tYmdofMpvfvWU77F7QEdLdDMB/OBAQxgIH4GHI+ZlLL5onrTybb/38yNTmhsqK/ljkzjgDAmoR/H09r4wn8uDQdM/A4Y5pw5xwAGMBA9A07HDOCiB445YU4wgAEMYKDbBoiZiJ2R3e0J5ufxoIEBDGAAA64bIGaImbb/gnMdP/ePB3gMYAADbhggZogZYgYDGMAABjBgtYFQYobydaN8mUfmEQMYwAAGomiAmKHGra7xKB5U/E082GMAAxgI1wAxQ8wQMxjAAAYwgAGrDQQaMwdvWrf5RmuvXurWWN7qgaKyw61sxpvxxgAGMICBDzUQcMyklO0f0sjNNW1sL2s04b/u0Yf+oXwfqDGAAQxgAAMYaGUg0Jhp/kJzYlqLR1zosfm9fAQqBjCAAQxgAAMfYyCcmCne1Ur9mUo97Mx8zOTwvRzMGMAABjCAgaMNhBMzg3N6UlvRBS7UyHlDnGSHAQxgAAMY6LKBcGImN6mHtaomzmSUIGhA3GXErFqOXrUwRowRBjDgsoFwYsZ4KpQfa3VnX69re9pcLLe9SrXLg81948EEAxjAAAYw0H0D4cRM+opmt3Y0c/WcBgZOq3Ayw+4EuxMYwAAGMIABDHTFQDgxM3hPFc6Z6cqEUfTdL3rGlDHFAAYwYLeBcGKmf0aP6qsqJXk1EweM3QcM88f8YQADGIiegXBipm9aS7zPDDszbKdiAAMYwAAGAjAQeMwY4ylXWtaLWkWX2ZkBcQCIWSVFb5XEnDAnGMBAmAYCjZmDazNV91St1bUwNSyPl2UTM8QMBjCAAQxgoMsGAo6ZlLL5onrTSSauyxMXZvHyu1hhYQADGMBAlA0EGjNRvuP8bRyYGMAABjCAATcMEDPsmLBrhgEMYAADGLDaADEDYKsBs6pyY1XFPDKPGMBAJwaIGWKGmMEABjCAAQxYbYCYAbDVgDspeW7LShADGMCAGwaIGWKGmMEABjCAAQxYbYCYAbDVgFlVubGqYh6ZRwxgoBMDxAwxQ8xgAAMYwAAGrDZAzADYasCdlDy3ZSWIAQxgwA0DxAwxQ8xgAAMYwAAGrDZAzADYasCsqtxYVTGPzCMGMNCJAWKGmCFmMIABDGAAA1YbIGYAbDXgTkqe27ISxAAGMOCGgf8Azzcy2AkuPigAAAAASUVORK5CYII=;" vertex="1" parent="1">
          <mxGeometry x="920" y="-170" width="563" height="206" as="geometry" />
        </mxCell>
        <mxCell id="lzVTPE6SVPyK5xBB-7iW-11" value="" style="endArrow=none;html=1;rounded=0;exitX=0.917;exitY=0.033;exitDx=0;exitDy=0;exitPerimeter=0;" edge="1" parent="1" source="lzVTPE6SVPyK5xBB-7iW-7" target="lzVTPE6SVPyK5xBB-7iW-10">
          <mxGeometry width="50" height="50" relative="1" as="geometry">
            <mxPoint x="870" y="130" as="sourcePoint" />
            <mxPoint x="920" y="80" as="targetPoint" />
            <Array as="points">
              <mxPoint x="910" y="20" />
            </Array>
          </mxGeometry>
        </mxCell>
        <mxCell id="lzVTPE6SVPyK5xBB-7iW-13" style="edgeStyle=orthogonalEdgeStyle;rounded=0;orthogonalLoop=1;jettySize=auto;html=1;entryX=0;entryY=0.5;entryDx=0;entryDy=0;" edge="1" parent="1" source="lzVTPE6SVPyK5xBB-7iW-12" target="lzVTPE6SVPyK5xBB-7iW-14">
          <mxGeometry relative="1" as="geometry">
            <mxPoint x="380" y="220" as="targetPoint" />
          </mxGeometry>
        </mxCell>
        <mxCell id="lzVTPE6SVPyK5xBB-7iW-12" value="baiduToolService.aladdinDelete()" style="rounded=0;whiteSpace=wrap;html=1;" vertex="1" parent="1">
          <mxGeometry x="70" y="190" width="180" height="60" as="geometry" />
        </mxCell>
        <mxCell id="lzVTPE6SVPyK5xBB-7iW-17" style="edgeStyle=orthogonalEdgeStyle;rounded=0;orthogonalLoop=1;jettySize=auto;html=1;entryX=0;entryY=0.5;entryDx=0;entryDy=0;" edge="1" parent="1" source="lzVTPE6SVPyK5xBB-7iW-14" target="lzVTPE6SVPyK5xBB-7iW-16">
          <mxGeometry relative="1" as="geometry" />
        </mxCell>
        <mxCell id="lzVTPE6SVPyK5xBB-7iW-26" value="post" style="edgeLabel;html=1;align=center;verticalAlign=middle;resizable=0;points=[];" vertex="1" connectable="0" parent="lzVTPE6SVPyK5xBB-7iW-17">
          <mxGeometry x="-0.1818" y="-2" relative="1" as="geometry">
            <mxPoint as="offset" />
          </mxGeometry>
        </mxCell>
        <mxCell id="lzVTPE6SVPyK5xBB-7iW-14" value="AladdinController#delete" style="rounded=0;whiteSpace=wrap;html=1;" vertex="1" parent="1">
          <mxGeometry x="390" y="190" width="180" height="60" as="geometry" />
        </mxCell>
        <mxCell id="lzVTPE6SVPyK5xBB-7iW-15" value="bff-baidu-tool" style="edgeLabel;html=1;align=center;verticalAlign=middle;resizable=0;points=[];" vertex="1" connectable="0" parent="1">
          <mxGeometry x="320" y="220" as="geometry" />
        </mxCell>
        <mxCell id="lzVTPE6SVPyK5xBB-7iW-19" style="edgeStyle=orthogonalEdgeStyle;rounded=0;orthogonalLoop=1;jettySize=auto;html=1;entryX=0.003;entryY=0.59;entryDx=0;entryDy=0;entryPerimeter=0;" edge="1" parent="1" source="lzVTPE6SVPyK5xBB-7iW-16" target="lzVTPE6SVPyK5xBB-7iW-30">
          <mxGeometry relative="1" as="geometry">
            <mxPoint x="1000" y="220" as="targetPoint" />
          </mxGeometry>
        </mxCell>
        <mxCell id="lzVTPE6SVPyK5xBB-7iW-16" value="PushThirdService#aldPush" style="rounded=0;whiteSpace=wrap;html=1;" vertex="1" parent="1">
          <mxGeometry x="680" y="190" width="180" height="60" as="geometry" />
        </mxCell>
        <mxCell id="lzVTPE6SVPyK5xBB-7iW-22" style="edgeStyle=orthogonalEdgeStyle;rounded=0;orthogonalLoop=1;jettySize=auto;html=1;" edge="1" parent="1" source="lzVTPE6SVPyK5xBB-7iW-20" target="lzVTPE6SVPyK5xBB-7iW-21">
          <mxGeometry relative="1" as="geometry" />
        </mxCell>
        <mxCell id="lzVTPE6SVPyK5xBB-7iW-20" value="baiduToolService.aladdinRefresh()" style="rounded=0;whiteSpace=wrap;html=1;" vertex="1" parent="1">
          <mxGeometry x="70" y="350" width="180" height="60" as="geometry" />
        </mxCell>
        <mxCell id="lzVTPE6SVPyK5xBB-7iW-25" style="edgeStyle=orthogonalEdgeStyle;rounded=0;orthogonalLoop=1;jettySize=auto;html=1;" edge="1" parent="1" source="lzVTPE6SVPyK5xBB-7iW-21" target="lzVTPE6SVPyK5xBB-7iW-24">
          <mxGeometry relative="1" as="geometry" />
        </mxCell>
        <mxCell id="lzVTPE6SVPyK5xBB-7iW-21" value="AladdinController#delete" style="rounded=0;whiteSpace=wrap;html=1;" vertex="1" parent="1">
          <mxGeometry x="390" y="350" width="180" height="60" as="geometry" />
        </mxCell>
        <mxCell id="lzVTPE6SVPyK5xBB-7iW-23" value="bff-baidu-tool" style="edgeLabel;html=1;align=center;verticalAlign=middle;resizable=0;points=[];" vertex="1" connectable="0" parent="1">
          <mxGeometry x="300" y="130" as="geometry">
            <mxPoint x="12" y="245" as="offset" />
          </mxGeometry>
        </mxCell>
        <mxCell id="lzVTPE6SVPyK5xBB-7iW-31" style="edgeStyle=orthogonalEdgeStyle;rounded=0;orthogonalLoop=1;jettySize=auto;html=1;entryX=0;entryY=0.5;entryDx=0;entryDy=0;" edge="1" parent="1" source="lzVTPE6SVPyK5xBB-7iW-24" target="lzVTPE6SVPyK5xBB-7iW-29">
          <mxGeometry relative="1" as="geometry" />
        </mxCell>
        <mxCell id="lzVTPE6SVPyK5xBB-7iW-24" value="PushThirdService#refresh" style="rounded=0;whiteSpace=wrap;html=1;" vertex="1" parent="1">
          <mxGeometry x="680" y="350" width="180" height="60" as="geometry" />
        </mxCell>
        <mxCell id="lzVTPE6SVPyK5xBB-7iW-27" value="post" style="edgeLabel;html=1;align=center;verticalAlign=middle;resizable=0;points=[];" vertex="1" connectable="0" parent="1">
          <mxGeometry x="625" y="232" as="geometry">
            <mxPoint x="-20" y="-142" as="offset" />
          </mxGeometry>
        </mxCell>
        <mxCell id="lzVTPE6SVPyK5xBB-7iW-28" value="post" style="edgeLabel;html=1;align=center;verticalAlign=middle;resizable=0;points=[];" vertex="1" connectable="0" parent="1">
          <mxGeometry x="625" y="232" as="geometry">
            <mxPoint x="-2" y="144" as="offset" />
          </mxGeometry>
        </mxCell>
        <mxCell id="lzVTPE6SVPyK5xBB-7iW-29" value="" style="shape=image;verticalLabelPosition=bottom;labelBackgroundColor=#ffffff;verticalAlign=top;aspect=fixed;imageAspect=0;image=data:image/png,iVBORw0KGgoAAAANSUhEUgAAAW8AAAB2CAYAAAAHkhLzAAAf1klEQVR4Ae2d+VMbaXrH9+/pkYR6JBBQgA5QcSPEJXMU5gZxiUuAD7AxBiOD8QG2MDZgxOkZxgM2Zjw242tgate7SbYq2VSS3UrVVlLZ3VSlpjbZ2d1sZvabakkttaAFAmMLWc8Pqm6pu99++3m//Xm//byvpB999NFHoBfFgDRAGiANhJYGfkQNFloNRu1F7UUaIA1wGiB405MHPXmRBkgDIagBgncINho5L3JepAHSAMGb4E2uizRAGghBDRC8Q7DRyHWR6yINkAYI3gRvcl2kAdJACGqA4B2CjUaui1wXaYA0QPAmeJPrIg2QBkJQAwTvEGw0cl3kukgDpAGCN8GbXBdpgDQQghogeIdgo5HrItdFGiANELwJ3uS6SAOkgRDUAME7BBuNXBe5LtIAaYDgTfAm10UaIA2EoAYI3iHYaOS6yHWRBkgDBG+CN7ku0gBpIAQ1QPAOwUYj10WuizRAGiB4E7zJdZEGSAMhqAGCdwg2Grkucl2kAdIAwZvgTa7rGGuAYZRIs9gxdv8rLIzUQMow1F7HuL3eZ6ca9vCOT5DiVJYUSZLjeVMc9/q9T7Ee13OxiRVoHppHW4FXQ9omOwbOWpAaLXkr2DKJp3FzfQXWIgN0ccq3Kuu4xo/qdbiniJCEN8NIMNjMwp7kvVmEAkgxyvGz7o+dr592yWGJEN+PYRikJstwo1CGXJn4PsJy3/f6QeqXmSvHm5PSI7m5jafLgW+aXK/tYgxG7R+bE+cq8f1NrfP8DBOJqc8aPWX8ZbMafz+aDJNy/3KEMWYYGWp7ivEfzxtcZb3Ig+U9OE+GUWHuYQOelu9fX6WhF1dXHqG/vQo6wfXJ4gtQdfE+ZuauIT/+8ABnCq7Acf8SUt/DdQtjT+uHA+r7jNsHCW+ZXAK9SgJ9ggyre8D7fQb6XZ/rKOEdoVIgKykSWbmZ+OVbwPvH7ZHOcnKzdVhdacBvbHFgDwAhJjoZf7ddhYcVKhi4+ujkiDzA8YeNeaDwZmQ56FzaxMUKNSQi9eJSHpnnVjE7WgOlyPZA6scYLmH681EYDnl8IOegfY4/qMXaKCjwdjlnOUZTpbhhZrHdLsdKsRQpUpfT4bb3NbK4m+J1LDkmFtslLmfJO+9bGeLH8xfKKGVY8QNvdZbQnUegesfNwUglqDsRgfUWFlutcsyZpEh0148v39+SiZFhozMCTQLHL9NF4HVHBKrcDp+JkKC9WI4nrXJsWeSYyZNALUjd7Fc/iUKKoWo5XnewWC+XoangYM47QqvB0nQFvn1Rjz88qcA3F9RIEZyfuzZGnYpf+IG3JC4Bi/cq8d8v6vDr26m4cLFil/N+WeNtP7ayAH95nI0yd5wZVQyuj5Xit5tmfPekEj8Z1CJjx9MPk5SOX20X4px8twMuG6jGf9qS0HetHN++MOO/VgownC7zPHnsV75Uq8HKbAW+fdmA/3tejV+MpaBQwevP5by/bNVh/ZNa/PF5Nf7hig5ZO+qnKJ/AwtyFPVNuTLQFw+srqNfuvgZ/+hF+zqSch319HPk79Cnch9ZDE75v225BhfcXVTI0qyXI0srgaJHjfpbrZg8U3l9Wix/PB2UveEsj3O5cG4EnXbvhnW6U48dNMljUEmSopbjZxGI1xwsj/hxiS67+A00splN4GDAwFcrxTZkUCoYBlw4pLJRj2xyBungJDM7rZzGf4S1/r/px5VeWyrFllqEmXgJjkgyTjYHDm2FY2O7W4B9H9GjOVqGwKAWvH5vxpon1wI+7Ln/w5tIZ1rFafLecjVPZKpSWZ+L5ZzV7wltamoc/b+bC7Lx+KSyjNfj2XgZas1Q4YdJj82E9fmGNdKVdjAb8dqsB3281ANuN+MG9/v1XeWhyQ4yD93ePS7DaHIfCzASM3a3BD59mOB0qw+xTPiPFGXs9vp1Kgzk9EgW5iVhZqsOvelTutA8H73r8xmHEpXwViksz8fPNhl3xST27jgVbhajr5nXBMBloXdjChZPejoXftt+SkUQgpsKO2blzSCR4+2hzv9iFw/YgwpvFXLoXVqk5crwplyLCeXMH5rz9Hc833F7w9uwTI8PjHfDm4Nhd51s/RYIMowZJwI/t2flyfFMuc8NaApuFxVQyD3PuvRxjOq8bE14/Xzduybn43fWTOssbc7s5rjMoKQoc3sLy+fXS/ir88Zra5wbxD+8YLD82Y73Y29k2Xan1C+8IlQrjs2Z8N6FDjLN9ueNrsZLvvf4U60n8dSoJUdx2uRyZ+kgYiwz49XYJxtMjYeTe61nndq7OHLz/Oq1HNO/kUzPw6+0inGe5znGf8hk5Ruca8U/d4gOArrRJI/7GIvfEo85Wuys+hr6nmD6f79mHj6VwyTBq1E1u41K1q2MSbvO3zjBGtC9tYfHxFhY/dcCc6dup+juOPg8vBx5UeAsHHGMy5PhprQxxB4C3v+N5Eb8NvPcaEOXL32vJxMnw1J0mYWJdaZR6dxqFc4bjHSwG47zwEl6/sFx/8N55/EFz3pqCDLxeqcYfXrsc7vdbjR748uf3D281Nl5UYy7LW3+xAcu/uh3zD9sN+P0nRnQkuPbngLbxohH8ds5hc+fHQip0Aoe5X9pE2NkwEZGwNCTA6IT3/uWnNRTh969r8a+OE/hiKAODJqUnHy+W887vqQDsOh9QGy48CxjeQzVRPsfyMRZbMowcURo9NPpMGLsWMGtvdd4XYvvSZ+EFbGF7E7xFne3es1mEAfS3zrl3zl3fSmKQnCPHT6qkHtcYbHgz8gQ82TTjb3vUKEp1uVrr5aojh/cbaxSMKTo8eWLGltnrYl3wrsGjSt5Ru5fqCMgOCW9hOwRSPtc+6rQEXLRm4tOxEvzutRk/aVI4ARsovLP6nmKmz7QnlBlGA/PdbQxVi7t8Yb3F1pmUc7CvjyFPEBex/eiz8IN4UOEtTHuk+aRNGHTV+qYtSopYbJq8j+mcM/Z3PC9kj/MWGfDy7OMH3jvTJkq1DONGacBpE6783AIWr4ulOF0nhyPNmyLiwf52aRNv2uWgaRPe0fbwg6eMBI0j3rSHJzYJrgHLSyqvw+a2udISZqyX8O3BYK+0SVZnKf5v1YBCz4C0K+3ytNwbE/6cwiVfT38DlkLn7XOcM21ihr/yufhHRsqgFAxAF1+oxF9vJ7rTdrunCoo576TOz7F0rd55jPD8wnWGyUXXyiv0FO59rcJjhOtM5gDurl6FkeC9ZycpjFm4rAcV3ps1EWjiByxb5fjEPWDJBd+QJ8eP62WojZcgSyfDYhuLCT3/2O1yxs/2OJ4rg5FIMWFlMZ0pQTI3dVAlgUriGjCMVPoOWHYItnPH7hywtDexeJB9sBtQEi/DZrMc6x1ytLBeAHoHLGXOAUvXgC2LBfeAJbd9r/px8OEGLLfNrvhwA5ZTTWzA87wZVovN53X42Wk1CtNiYGnJw/P73nnavPgZmRabr+qw1RqDbG6qXpICcTIuftyAZR3+dN+I0+4By9erXvjz87z52SaMUoPNTTO+rnO5b+54y9Ua/O9KDnpzVCgx6bG+YsY/n3YNGHrOv89sE//w3rt8rn63Vxrw7+MpaMqKQk62Bp/er8fvBmMP5LylhiHcXZ1AYaS3bfm680tp5gAm1+6ieEcHyG/fb8nkX4HjkyGkEbwJ3ju+WRpUeNsNUtgbuKmCLD4vlSJV4IScU+lKIvCsncVWixyzeVLEuwXMwWuwWY7RdP/HczcFB8GUtAistrJ408WC+8JOr8oFb87Z81/k4Zf8duexUgnMhXJstMqx3SrH/AGmCvI3JFfPEQuLNzXSXTlL7vo6SiLwtM19fflSaNxT9bh671c/iVICW40cX3ew2KiSoS43InB4c19OKjfi5+tm/JmbJjeahIrW4t1pE0aCnMYC/PKpGT9sNwLbFbjt7kAlCQm476jG/7w049+m0nGmp9Rz/C54MwxMveX4Qei+VTEYGzuJ323W409PK/Ezmw6GHVPxDuu8ne23T/lyvQ6rjkr8/lUD/vK8Gv9iT0OlG7CBpk0YJh4V488xOWJG/I66u+pQAOvMC9hPGQ79tXYmox93Hs6iWsfuOauF1xwtwyd9Elx4+/mGJAkwfAQY6m3NROageeIZHAszqHJPDeWuKbroMsZWXuDmQCViBabkoNfL5cyLbGuY39jC0hX6bZODxu9D3p/gveNR5ENubLq2d9MpMhIlNKYWFLingnJxjs5pQGF67KEdt7CtuCe4CJUaavptE0qdCHgVFHgLhUnr7wYoFFeKK2ngw9YAwVvQk5HYP2yxU/tS+35IGiB4E7zpUZQ0QBoIQQ0QvEOw0T4k90DXQm6YNHA4Dfzo448/RrBeKpUqaOcO1jWHw3mVWiU+5Fc4tCFdY/C4GGjsCd5B7LwCbaRQ2+9DBjd3baHWHlTf4w/iw7QRwZvgfeQwepfwfvbsGbjXuzzHfmUf5kajYz5MgAazXQneBG+C9wHTPMG8Yenc1AnwGiB4E7wJ3m8Jb1VqDVpsC+goZj2xTLZM4NK5VmQmKDyf8TcdLQnAR6EBgrcIvHW5NzHR+YnzZbcOoyTKe1P6C3py/gRulRU7b1SWVaO89r6nDE9ZDS3QsfuX5e8cOz9n45pwyWrDCeXRlbnzHId5v1/aIdDtCk0ccnodmFz7Gve/+AbLD8ecKZN3nTZRaIzoWN5Cn1khmp4RxiQ2rw/XP1vHQGcdUmK97RCZWIy6wU9wb/4GinQEcGHMaP1oOi+Ctwi8lSottHFJ0Ca2YfAt4H0uJ81VDlcW94qJhZLgLQpEMaAr0towsvEIPfVG6HPSoTdqjxW82UgTupc2MViTBIVIu7JsLIx9a5i9Wo9Yke0EsaOBWLjGMWzhrYgtQlOVHVfb53HDYsdZ0wmoFV7nxAmCjalHvx94K6Lz0Vh9G9fbHbBV1KPIZN/lvM9m+J8Kud/5WaUepsJh2CxzGG+ZQG9hMTTu+rHaTlyx7u3s2ah0nCy9iuEW7vpu4UyBCQmC60sz3cGVogoUlYw7YzBa34+Tald92TgLLlnHURnnjYcyuQfX2/qRG4DL50BsuLiOqSELykdWMPPwBaYcdtSeiPGAW5Gaj4bRZUx+/hKOlTXYBmqRpPN1uoqcsxjfmEZ5ovdzfsDyrcs31uDU5EPce7iFxbUNXB/tQIbedR6X8/4a561m9Mw+xdzaF7h6uRF6d/14WMRUT2JhfgBpgrjy2/glq27FyPoKmpK9sfRsi2Rx3cLiRTWLZII7pZdEjCSvFbFlWMKbZRNQUjmNi8XVyNakIVlvRnfzPHqy1D4C8gdvllUh7+Qsxuu6UKBNQ2pKG7oapgOGdyDn1+fdxK2mfpQkpUGfWIn2xnkM5qW60jLKeGjj9dDpO2GzXkGlWg8d9z42zunsWTYKhuIpjJu7YdKlISW5EWct8+jN0nquj4P3mOUqWrNykazJQ2XlDOz1Fmdax5n2qVnCUH6a63ysEjklDlwvPRHQkwMPb8enCzjTWoKMwpNovPUllmZ7oNcooNDEwDT8JWYmzuFEkQHp5a3oX36Fa93pTrgrigcxyf1/4+MtLHO/pudeX1y97nHeHLwPXb4mGqU3XmHGfhq5pgykljbg1PQmxntzXOd3pk1e4c7kMKrKcpBZcx5XPn8NW5vOuZ2/kbJ617EwXCPquvl9WNaIjsUtXKyM9MTes03FwmFlnX9snE3w3hUfPk60FH9CCUt4i4kh1TSJ8RKTj4D8wzsTTZY5tCW75vyyrALZxbO74G3vWMItwWsgV+9TvrAewvOzrAaVdffRmxXr2T8qsQ4txjxEC25yfzlvls1EU/M82t31486TxHUGFWWIdB/PwdteVeUpj01ogc1qQ2GkyyHGZNhwq7kTqSwLVmmCtdWBtuTdABJeA7/Ow3vJ3oJYjdvNFvTBvjGNCj0H73x0fvoMp8q8jlrXtYQluwXRHNwTNUjKy0BylQ32jTk0mjKQzL3P1fnA+9Dla7TOvya7cTrN8yQgTNu4nPc2Rto1nu15Q19ibqTSB955F59h+kKRp4346xcuWTYJjXe3YTPHie4XFcVCG8DTjLBMWheHWbjFJWzhHZdkwan6KdxoX3YB1nrfA19eBP7hXYD29jto0HofhcUGLC/kZbkcMeeK4/VQq7zw2+v8LJuGhqYlWFO95fN1Ei79w3t3/WKzhmGvrUe8AN7CzopL0xgzTNC54c0qi9HVNg1LohKRKX0Ya+mBYY/0gLBePLx52HHvFUkZMFnKkZzEwbsc5x5uex0177LvdkPjhr3zmH3SJm9Tvq5lGrOPnuHm5B2cHzyPqooURPEdjciAZVrvAyzfqPeBd+7AZuDwro8XhbcwbrROUD6IBsIS3pyT7Ghx4FyeCSkJLrDmFd85cnj3Zom7rf3O/87gXWNGnB947xQNyyqRXXwP14tPIP/kHEaLcgNKmXDliMGb+4x/ueD9BD31bkfNuWruZVAj8pDw5svmloGUr9BEIr6gApXdF9A9Oo87j57D1qp31lFstokovC8+w72LJXtCmWWT0TjFOW/vU9TOWNN7gvZhNBCe8I5vxqB1CCZ+AJBVwCBIe/CBZGPM6LeOoETl64CdaQmLNy3hL23iF977nF88bdKI9tx8T5qDqyPnvAdFpgr6TZuUl3kAzKVNhM6bv2bhUqG1YqR5FH3NM2hOFJ/uFhmfhASV7zYOoFxOWuiMfeHKpU1eos8c5QG6cDu/vt+A5WHLV2iiEJ0SB5XWm7bJvPAQS+NNzs4jUHinnVrF0o1mRAlSWcL4OduIPYFTK69wrtQ3Rq5tLHJTWVhSWMTsUcbOMuk9wZ7TQHjCO7IInW0O9OYWIFmdCaOhB11m7zxt/uZgFUXobHfgdHYmdM7pflrEKFi4BiwdGDefcg1Yprahu3HG49z5ed5+4R3A+T0DloncgGUVrI3zGMhN9nF5bGQ5znRMoTMjE4lcaiYmxrndO2B5as8By/3gzbJ61DXch93ShTQRuLC6Nlx5tI2l5UFkCrbvD+8YFAw/wcLcKMpOGpFZ0YKeua8wdtbgA/PDw3vv8hWadFgcW5i42oGCwkykFNege/YV7gycOJDzVuZdxtTqJEoFs3J47fBLRc4l3FmbRlm8rwHgtrORLGY7WTw5we456MmXRUuCtlAD4QlvVgFN6in0NTsw3jaF/pIKpGcPe+DLB4hLHSRm9GHQMg+79T7sVjtq3DehIsaE5po7uN7mgK2yCab8657j94V3AOd3ThUsGoGtZX7XVEFv/SKRkn0JttZF1xeKKso8EGCjMlBWet05VXDMORXS5DMVMhDnzbIxKK5cwvCJTJ9Ow3P++Gr03X+JexNd0B8A3hzcFWkFaLz6Ce58/hJzDx5ieKgBesGUQOc+B8h5826dX+5XflReI87ceYjZ9S0srH2BsRtnkZ0qnCro+yUdsbQJy+pQfesF7ow2QScy6MjGF6P73kvYz+Z5nnj42HFLhZ7F6y4W50XALtyP1gnaYhoIS3iLBYI+232DsKpK9HZMwqze7Rr3ihcP0Hex5Od5v4uyAy1TeO1snAkttzcxtziLukxvnNRlVzD+2UvculTrdzZJdgGLN3UskgQdn7BsWt+tSYqJNyYE7wNOjA8n8cRlDeNWU5uPqw7k+gOF4GH2O27w5uLBKmKhL2lHUYYX3gmmZpRma0Udt/MYloW1hoVDAPxAYkv7eOEV7rEgeBO8RVMib3NjHAbKgR5zHOH9NrGiYwnGh9UAwZvgTfAWTGMMpBM57M1GxxGoj1IDBG+Cd0jBOxC4vut9jvIGpLII6IfVAMGb4E3wJud95Bo4LJDouMA7s6D+ezz3B8T0z9GH++doihvFjTQQ3hogeH8U3gIgAFD7kwZCUwMEb4I3Pf2QBkgDIagBgncINho5pdB0StRu1G5HqQGCdxjAm02sQPPQPNoKGI/D0jbZMXDWgtRoieezoxQWlUWgIg28Ww0QvEXgrWlbcf7hrfNPbzdmURbphZ4/QSZ1rWLxcqUThAyjR/PstqeMpbUnuHm9Dzlx0iMBJcOko3VhC+eK96+X0tCLqyuP0N9eBZ3Su78svgBVF+9jZu4a8uMJ4P7alT5/twCi+B4+vgRvEXhLI9VQa5OgNpzD2FvA+1Kj3lmOJqUI5htPMG9vRRzjBehhhRsovBlZDjqXNnGxQg2JyHkZRonMc6uYHa2BUmT7YetHxx3+hqTYUewC1UDYwluqLkf7jQeYWXsJxyefYfDUScRJfMHKxHfgqh94S2KL0Da+htm1TdhHO1B65sEu591fJvM4bSbxNG5u3MNJJQPemQu3p55dh2Ow1LO/RF2OzlurmFn7Gourj3HV1gI966qfC95fo7ehCmemnsKxuoHRi7VQy3zrryifwMLcBSTtuC6hOJhoC4bXV1Cv9T2W24eRSTHazOJFlQxagrunbYTxo3WCbbA0EJbwZpg4VFz/Alf7m2HMSIc+vxUXl19iqDbe5wb1B2+GUaDA9gyOO4M4kZmOlOLz6Jv9Ym94J3Ti+oYDFar94c0wchSOvML0jU5kpeiRaKhF5+QmxqwZzvq54P0Kk3YbyowZSD7Rg+EHrzFUG+dTf65DWLBViLpuXnAMk+FMwVw46e1oPNtYKWY7WLxplCGd4O0TWz5GtCR4B0sDYQlvsWCnnH7k43y5ffzDOxvty89xpsCVw2YYCYz9z/zCWyJXI69/FYszp6FhAoF3DKrt27jWkigKDBe8t3HZHOPZnnX+y131N/Q9xfT5fM8+YtfNMGrUTW7jUnWk6H4Rcglidzh6sXLoM4IYaeD9aiBs4R2Vcwb9M4/hePQ1Fte3sPh42wNfXoT+4V2Ms2vraE33phrEBiyXuD/WXd/C0uNtzM9PoCKFdQIykLRJXPVd3Hv0FOP22+jpPYuyXC1kbvcrlvNOtH6G5ZEaHwAbLjwLGN5DNVE+x/IxoOX7vSEp3hTvQDUQlvBmIkrQ8+ArXO4ogV6vhyZRj4K+9SOH91BzqrNsdXwUpIK0QyDwZhgpopJLcLL5HKw2ByYfPcdQjdoN/92zTcTgndX3FDN9pj2hzDAamO9uY6haued+gQqK9iP4kAbejwbCE966UxjbmESROx3ApT2y+5/uhndcu+iAJcO40yamwNImO8XM5dxrJrZhq/X+touxfxN3e3PdcJZBrlQiQup19smn1rA0WufsBAJ13kmdn2PpWj0iBB3H7rrkomvlFXoKd08XZBgGWUkyNCVKaDaKyKyknbGk9+8HWhRnV5zDE97ycpxf3YStrRj65CwY60fRN+Wdp82Lg5GW4/yjTQzUZ0HDTR3UqqGUcjlrbsByE3NTQ54By4tzX3rgL+as+TL5ZXL3KhZmLjuP1xecweXPvsL5ElfemWGS0DizBbutBca0ZGgzymGdeoXJszkHct5SwxDurk6gcI956tLMAUyu3UWxyttR8HXkZpvMdLL4Il+y56Anvz8tCV6kgfengfCENyNBXPEQhpe+wvzqBq4O1COtYdYDX16AXOpCWz2GsZWXWNrYxvLGZ2hIdEFOEleCDvs6Zte+gv1GNwqti57jA4E3o0hH5dAi7jx4CcenDzDYVYxogUOWJdai276Ge4+2sLC6gRsj3Uh3QzhQ580w8agYf47JETPiRQYdGVUBrDMvYD9l8Enr8Ncv0cjwqkuOHhGw8/vQ8v3drBRrirVQA2EJb2EAPvR1JjIHzRPP4FiYQVWK111HF13G2MoL3ByoRKwgPSOMR3quHG9qZVALOhXhdlonmJAGgqcBgncY5DIZiRIaUwsKkgXwzmlAYXqsqOPmbkhuHKCtmsVs2u5cON2wwbthKfYUe14DBO8wgDff2LSkG5808OFogOBN8KYpgqQB0kAIaoDgHYKNRu7pw3FP1JbUlofVAMGb4E2uizRAGghBDQQV3oftceg4ciukAdJAuGuA4B2CPW64i5aun8BNGvgIBG+CNz0ykwZIAyGogaDAm2GMaF98jmnHPbQXun5siXpSclOkAdIAaSBwDQQJ3nJE6dJhaJnG7Oo15OzxTy/UmIE3JsWKYkUaCB8NBAXevMCYmFZc2XCgPMr7zT9+Gy3DR4TU1tTWpIGDayC48NZ2Y2zjDooiCN4k3oOLl2JGMQtnDQQX3innMLE+hjz64SMaMArBAaNwBgdde/A7zuDCO7oRtvVlNCQr6feiCV7UgZEGSAMH0EBw4c3IoKm5hdtr21ji/kfySo3fX7mjnj74PT21AbUBaeD4aCC48GZL0LOyhjNl2UhM1EMTR/+jSDfH8bk5qC2oLY6zBoIL75TzsFPOmx4VD/CoeJxvJqobwf59aiC48NadwfjGbRT5+SeX9xkIOhfdeKQB0kAoaSC48I5txSjN8ybnTc6bNEAaOLAGggZvhpEhuugaptbtMJHzPnDDhZJDoLqSoyUNHL0GggJv52+bLG9heX0DQ81ZkNE8b4I3OS/SAGngQBoIErzliFJroWKlB6os9d5H33tTTCmmpIHQ1EBQ4E1iCU2xULtRu5EGjo8GCN70qEZPP6QB0kAIaoDgHYKNRu7n+Lgfagtqi2BpgOBN8CbXRRogDYSgBgjeIdhowerp6bzkMkkDx0cDBG+CN7ku0gBpIAQ1QPAOwUYj93N83A+1BbVFsDRA8CZ4k+siDZAGQlADBO8QbLRg9fR0XnKZpIHjowGCN8GbXBdpgDQQghogeIdgo5H7OT7uh9qC2iJYGiB4E7zJdZEGSAMhqAGCdwg2WrB6ejovuUzSwPHRAMGb4E2uizRAGghBDRC8Q7DRyP0cH/dDbUFtESwNELwJ3uS6SAOkgRDUAME7BBstWD09nZdcJmng+GiA4E3wJtdFGiANhKAGCN4h2Gjkfo6P+6G2oLYIlgYI3gRvcl2kAdJACGqA4B2CjRasnp7OSy6TNHB8NPD/xqAD8IYwHzcAAAAASUVORK5CYII=;" vertex="1" parent="1">
          <mxGeometry x="1000" y="320" width="367" height="118" as="geometry" />
        </mxCell>
        <mxCell id="lzVTPE6SVPyK5xBB-7iW-30" value="" style="shape=image;verticalLabelPosition=bottom;labelBackgroundColor=#ffffff;verticalAlign=top;aspect=fixed;imageAspect=0;image=data:image/png,iVBORw0KGgoAAAANSUhEUgAAAYIAAABTCAYAAACS7wC3AAAW40lEQVR4Ae1d61MbV5afv+dG3ZKWh8AFCIEo8xYSL4MoDBgE4iWeJgETbMfYxsbYMQRhxy/AGEiIYyeYeBxiOx7IzDiZ2fmw2aqt2S+zW7M7+2mqdjMzu1XJ/LaupJZaQi3xMBJ2nw+qlnS77z333F+f3znn3u77s7feegv0IR0QBggDhAH1YuBnNPjqHXwaexp7wgBhgGOAiIAiIooICQOEAZVjgIhA5QAgj5A8QsIAYYCIgIiAvEHCAGFA5RggIlA5AMgbJG+QMEAYICIgIiBvkDBAGFA5BogIVA4A8gbJGyQMEAaICIgIyBskDBAGVI4BIgKVA4C8QfIGCQOEASICIgLyBgkDhAGVY4CIQOUAIG+QvEHCAGGAiICIgLzBA4gBxhKR73JjcvkrLIw7IDBG43QAx+lNIVHVEkF6hoB3igWYNQfzBjvo8h30GyC7NAdTfUYUifs3vvrsBnSev4ueikAbpg43Rk+4kJei2ZPhZtmD+GB1Bf3VFmSlJe6proM+ViRf/COS14oIGNPgbKcebnPgxpODKNeqw3dv/4Pn8+2ADi5t+PMYY8g7LOJqlYjSfTQUctl28n0n8hWV6vDyqPBKDIV1sB74psP72bTjbHJ4/cn7cmTkGH78wORvnxlS8f5kLf5z3YkfvqjHxikjckPIljERzcN2/MfTNm9bz8rgknm8SuXblY/jpNRhweqFXNQnRu+DvD/b/Z5oeReXVz7He72NyJK1IaZXoPHMMm7PX0F5+u7JgFVcwtzyOeTJ9LJd2ei8+BvW120M3igiEHUa5Bg0yMkQ8SACEbxugxRJ3ldJBFpDAorNSSguLcLvd0EE3IC7Jhz4y1IJBksMqLbn4ZePW/HbrgQ/UfC+sJTD+MfNRnzWYICFt5elQ5LM4CmV70a+SLrbbRkTbTi+uI4zDUZoZHJL9fG0TtHIA8xOOJAYplw6L9KRWc7h1qcTsOzy+kh1UxkRRSgGYkoEXo9eh4k8AVedemz26rBiF5AreL02Xn6qXY8buQFPylapx2aN1+OVIoLpwvDXS51jiSJWFIjAWCyPGrRoCrnRmKBByxEtVrv02OjWYb5SQLZPPql+pSNLFbF2XIsOWSQiZmnxok+LRl/kwbQa9Np1eNytw4ZLh9tlGhhlHnM0+TQJAs436fCiT4/VehEdFTuLCLSmTCzeasCfn7Xih8cN+OZ0GI/dmIfvFYhAk5aBe3eO4b+fteAP1/Jw+kyDPyJg7BCWHznxeXVg/EqG6vHTtWwkyPTMzAX4180qjOjCe+tRyyPId7ivVhbVVOJtebvMgPnPmnG/LQuPV5rx16+a8E+XslAsiwqliOZP60785fEx/PqsCYWycj72CfUzWJg/HTGtyFJcuLi6glZT+D4qYUj6n+WehHt1CuUy+aUyOpIhf9UYiAsRfNEootOoQbFJxFyXDsvFXsOxXSL4eVP46yXlRCICQeuLGkxaPB7YSgQFVh1+1SHCZdSg0Cjggw49HtgChk1qI9yRyz/aocetXInYGCqrdPimTvAYQp7yqarSYdOpRUu6BhZP//W4WxioP5J8vP5jtTpsOEU40jWwmkVcb98+ETCmx9gNB/55PAedJQZUVefixSMnXnbogz12BUPLPf7+yWaPx/9OiQG19UV4+olDRgRGrD1rwnxxwPgZXXZgIQ9ZjIFZLfjTRht+3GgDNtvxk+/7j1+VoWMb5ZLOmYJ8vFxM8kU1div+uBmOCJz446wV58oNsNcW4Xfrbfi209t/xgRPRPPnO4XoLjbgSGUO1j9rxff9SUH6yTuxioWxhrDRgF9GVojuhQ2cPioGXSuVRzoyjRapDW7Mzo8gm4hgx/qLpFsqC0+icSACPeYLAoYvz6bDy3oBWm4IthkRKF0vDXIkIvCfkyriUQgR8PbfbgmWLyFDxIRFE5S6kOoIdywp1+GbetFn+DUYc+lx87BEDPy3DpNZAUMp77+8Ph5dbJVP8NQ36fMyObHUVG+fCOT1S99r32vEX68Yg242JUPLWCqWHjmxag8Qd8el5u0TgU6HopwkWKst+MNmDaYKkmDlv3P0SObjH6VckllJPqmcH1leEf4tLBG04zcunb+/LWPN/v57+9eMlfLA+OT2H8Xfb5o98kn1W049wa2T5f46pP/lR8aMaLm+iXNNwSQiPyf0O2NW9C5u4N6jDdz7eA7OomCCDj2ffoc3aqSXneslLkQgn+xNLdTh22YRaTsgAqXrJQDshQgiTUZL9Uc6sjQRT3ypIHbImypq9aWKuMc51afH2bSAoZH3X16vEhGEXr/TOYLMikK8WGnCDy+8nvmPG+1+Qy61r2RouXEL9fjlk8XhyuURgb/+fUwN+dtQJII2PKkP6L98uAFwZ3mMulf+dvxdilQ8x3Z/RCPVbTn95baJ4LwjOSJhSHXyI2M6JGfmIDOnCNaBBcy6uz33hfwc+r5zI0c6i64zIgJZ6M0jgj0TAfN6/dNmhsM2HX7dKPi9yXgTAdNl4PG6E78dNqI6z+uN919oJCIIIgIHPj8mRSq+o1ELUYaT4lNPcPtUZUQDz1gmnDc2cb5pd0s/We4I3KuTKJO1SwYtukEjHe1OR3EhAnlqJz8oNcQw0Bycmqmp1mO9MpCK4IZa6XoJBP6IQGEykp8X3uPemhpKNIqYsgrbTg3xuksr9HhhFzDYosNcfiANxolm76mhQGppp6khaRJ2WJq4Zhq0jwdSO379ZXgni88ZAp6zR2dSaqhGGg+G4NRQjCaLFeST5PfIuquIwJv6elIfGDN5ndJ38/FPsXil1ZPOlP4LPTJWioGVrzFcFbmu0Ouk36xoFDceXIaViCAi4Ur6ouPuCEDSW1yIYN2hRYc0Wdytw0e+yWIulKVMh1+1imhO16A4S8S9Hj1mcrwGSfLYv4xwPa+DaQTM9Otxq0iDw3w5qUEDg4bPQTAkJQZPFvfJyvm1oZPF7g497pfs7GbWpItY79RhtU+HLn3AmAYmi0XPZLF3slyPBd9kcTT5eP/5ZPGm06sfPll8s0O/7ecImN6E9act+G7QiKr8VLi6yvB0Ofg5AI/+RBPWv27BRncqSvjyTnMC0kSuPz5Z3IK/LVs9y0P5ZPGLBwEi8S8fXSwBn0yWlo/+xhWyfHSvqSFF+TRIzeDyJqHYM1lchfEg+fmqoUipIRGuyw7834oN79oMqKnMweqKE/8yaAgyRoLlPG48mEFVUmBsud7kH6FoFNcf3oA9hEzl50T6zsovYe6j88gnIgjSaySdUVkwBneij7gQgdsiwN3Gl4/q8WmtgDzZ8kzP8soaLb7s1WOjS4fZMgHpvpvBSwQ6TBQoX887zw1qbr4WD7r1eDmgB3+47F2Dlwh4xCE9dCYdpXLPtYIGziod1rp12OzW4e4Olo9Kiudyjrv0eOkQtuR4ef/6arR40uPrX7mATN/yUS53NPk0iRqMOXT4RZ8ea40iWkq12ycC/iBdvRW/W3Xif5824fsJMxq67VtTQ0wDW3sFfv/EiZ8224HNBlzzkbEmIwPLc034n+dO/PvNAgwN1wZd71l+OXUU3uWX9dgYyUCObHmsR8d7JQIF+fiqqCsL7YHlo/6H47zyM8/yUWUi8MhmSMXk5FH813or/vbkGL4by4IlZPkoY+lomHqK6+NOpIeUeeuoQP/tZ3C/Y9n1qyFY4Xv48LNZNGXpI65OkjBHx90bQdLdW4gPESg8GUwDQmB+XTDAkmzonPkScwu30ehbLsxlT6m+gMmVZ/hg9BgOyRycnfaLzzFUjz3E3bUNLF6idw3tVH90/s5sCRFBSEhPANoZgNSsL6ZJRGZlFyp8y4O5LlJsbagqOLTrSECuTx5Zag1GGOldQ5Qe2mc7FVMikIOcvpPBJQwQBggDBwMDRAT7zLQE9IMBdBoHGgfCgDIGiAiICCjsJgwQBlSOASIClQOAvCRlL4l0Q7pRCwbiQgQGQ/C6bLUom/pJhoUwQBg4iBggIqCIgNIChAHCgMoxQESgcgAcRO+EZCKvmTAQWwwQERARkDdIGCAMqBwDRAQqB8Cb6nmlWDrR0lGLjD083RtNN/u5eX20tqk8th7zm65vIgIZEaSXTGHm+Eeej7v/Ao7ItpxUAoLJ5sZ0rfeVxIyloNax7K/DX1drp/99SUr17OR/ltyKs/3nULaPRm4n8uz0XM+evv2zuPbgF1j+4hssPbwCm+zlakrlmT0rnvM916zNok7hpW/8idysulEMnepBfoLyi+F2Krf8/P3evF7eFn0no7/fGCAikBGBoEtDWrIRaRkujO6BCN61mL318Lr4JzHplbxyQALDa08EBhcurn2GwZoCGE1mGDNToZMTgUK5kGT0nm8ZwWQEIpD0tF/HWGxev1+yU71EKuEwoDoiEJIq0Nowjcs9d3HVNY3BsjKkhr4dM7EZpxSIQJNgReuxGbzfM4exumZUlE9viQgG85S3GIzWPhMyUVoxhjHXPCZdbpyoqPS/vIyl9WG8P3LEwbQ5sFdP4IJrHlddH+CdUhtSZP0zl3+I8SNHUVE9ics985hwnoI91bdnb3I7zvZPoi454EULWUN4v+ckLNuMPlhCIY6dXcDMyjPMffQJRgfsW/VrehuTazdgV4i4WLTy9D5cViCCQx0LsqjBjUo5wbACdC98iYEmB4ZvP8Hcp48w8V4zjLK+saQSNI/dw/X7zzD38QOcP9GwJb20183rmShgolOPZ40iTDL5wt2g9B8Z7lhgQFVEwFM3VfU3cbqqHoVpZphMTRjovIuh/NSgyTKmQAT8NcclNXcw2dwHW5oZ2dku9Lfe3DYRbKf9TOsUpttP4ojRjEzjUXS33cWoNdsjHxMMSDNkIt3Ui7H+cdSlZiKd/05K9kQcjGmRf+QGJluOozTdjCyTE4OuuzhRkObvHyeCyc5LcOUXw3SoBEfrb8HtbPekrvievbVNizhnM3vbYwKKq2fxvr1sWxEN32rRcvoR5m6OoaqoAIcrjuPcx88x1uLdE5kVvYfrqxu4t7qBJf5WTd/3e596N2CJVi7dECwCEQiJGd6ooWIMM2vhiOAZZqbHUGctxOEjw7h4/wXGmr364eNrG32MW1NDKC3Ih9nWiZMLX+Nyp1cfUvt73bye6QXM9unxsl1EARGBH5uSfukYe/JTFRGEA1h22TVMVpcGgVGZCPLQ2jmPLpPgM5QaFFbd2UIE7r5FTMs+Z0oyg+qXyyFvn7FDONq8jBP5gQ3PdRlN6Cy2QC8zGEqpIcZyg+Tj7Rg5sdTZ/VstciJwN9T562MpnRjrP49y33v1E/POYbqjD9l8D2mhFL3dc+jKEhXll/eFMQt6l55iqNKrH16W1buCexMtnvaZNhUZ2TnILB+Fe20OLbk5yOS/s9I88kQrl9qKRAT+cw4Pwx2WCDZxwRkg/uKTP8fc2VrfeJagd+kJjlsDEdGhzntYvNrm1xev/1VsXq/VaXAozF4Gkvx0jL0xVLPOVUcEScZ2DDhv4Gqvz1j3L/sNuQQEZSKwobvnQ7TINp8PN1l8yprn9dS5t27IRKo+YEgjtc+YGS3ti+iNsl+DMhFslS+p4ALcjmb/vsmeiEBGfDwVVZRn82+wwsQK9PfcQodRgJg9gknXEPJlqRNJR+GOjNlx4uEqugsChjTZOYulmT6kyIksWuonWnmEiECSiykSwQZG7AH5svs/wdK4w0cEXP7NQKTCI5ZHG1vk36/N6yXZ6UgkEGsMqIoImGBDT9cc3rWWIivFa6RLjlx/5UQwXJAc1oOO1v6+EUGTw7/ncigRhAKOMcET5VypKoO1Zh4TlcXbSgvxepSJoBeG14YIvsBgjS9S4dEK/6QbgnQQi83rQ8eFfhM57CcG1EUEhjaM9p9FqX9rSA0KZKkdSdEs0YHT/RdxRBfwHHkZY9tLDSkSQZT2w6eGnOgqsQalJnhEMBpm+ahiauio3W/IohEB76cmvRfjHeMY6byFtozw+zWLBiMM+uAyxdTQpWZ/asqjx2gef7TytF7FyWL/GO4qIuCpoecYsQciOKk++XGvm9fzLUmLzSI6sjVIlBGkvA36ToY/lhhQFxGIFejrmcNwiQ2m1FwUFg6hvyXwHICkeKapQF/vHN4uzEW6ZwloGhI0fM9jPlk8i6mW497JYrMLA223/RGF9ByBIhFso33/ZHGGGZkZdehtu4szJaagCIOJNRjsu4G+vDxk8PRTondzeKXJ4uHQyWJZakjqs/zIt0lsal2Gu7MPOWEMFUt34eLnm1hcPIM8WXlgsvi8Z7I4R5osdnoni6U2oq4KikYEQj1Ofr6O0dZiZPLlpyYjEgU+PgIS0vhvM4yeyeKbaAwq56uGIqWG9LCOPsbCnYuothQgt7QDQ3e+wtWe/CD973Xzer5q6PZxPb4o19B+xLLl2xI+6Bh7ElQXETANUs3HMdIxh6nuGzhVXYucwgt+Qy4BkBuUjLwRjLruwt2/DHf/NI4ZvNGBJtGGtqbr3uWjDa0otV32Xx+VCLbRvmf56JGLYZePBuQTkVU0irHue96H3+oCHj/THobdfhkXu+5i0rM8tjRo+eZ2IgLGElDZsIgL5XlBBtDfvqEeI0vPcNvdh0wZEfByllCMxvN8+eVzzH18H2ffqUVayBzDnomACTA1TWJy5TkW1zaxtPYJ2rI5EaTBMbPpXz7KHzzzPnwmlUcmAo/8ySVoGVvCh/efY37lIcZOOmAMmdTd6+b1mkwRXw/oMOzDlKRXOsbeAJLOvTpXFRHQoG/vRmP6ozjRdw2O1ODUGOkvoL+9bF5fUKrDy2YRxhASJf0G9Eu6iK0uiAgoNN3i9ScVjGG63bXF26ebM/jm3M3m9fz1Fz1NeszmB8+vkG6DdUv6iK0+iAiICLYQAd2Esb0JSd+k73hjgIiAiICIgDBAGFA5BogIVA6AeHsi1D55w4SB+GOAiICIgLxBwgBhQOUYiAsRkAcQfw+AxoDGgDBAGJAwQESgck9AAgIdySgQBtSLASICIgJKCxAGCAMqx0BMiYAxK3rvPcWtuTvorQp+7QB5I+r1RmjsaewJA/HFQIyJQIfkrAJYum5h9sEV2GQ7ZxEQ4gsE0j/pnzCgXgzElAgkoLHUblxam0O9bEtEqYyO6gUjjT2NPWEgPhiIDxF43i75IaoV9qwlMMQHDKR30jthQJ0YiA8R5I5gZnUSZfTSLZqkU/kkHRledRregzbu8SGClHaMrS6h7XAivY+dDCGRIWGAMBBnDMSHCJiITMc0rkn7w15y+HfQOmhMSfKQx0YYIAy86RiIDxHoazC88hBDdSXI5nvCpiWSRxBnj+BNBzr1j4w5YUAZA/EhgtyTcNMcAZEfkR9hgDBwIDAQHyLIGsLU2jVUh2xhSIytzNikG9INYYAwsF8YiA8RHOrGBD1HcCA8gf0CFtVLRosw8PpgIOZEwJiIlOoruLnqRiVFBEQGlBogDBAG4o6BmBKB511DSxtYWl3D+c5iiPQcQdwBQF7b6+O10VjRWO0XBmJMBDokG00w6AUygOQFEQYIA4SBA4KBmBLBfrEZ1UueEmGAMEAY2D0GiAgOCCMTiHcPYtId6Y4wsDcMEBEQEVB4ThggDKgcA0QEKgcAeVJ786RIf6S/NwEDRAREBOQNEgYIAyrHABGBygHwJngz1AfyygkDe8MAEQERAXmDhAHCgMoxQESgcgCQJ7U3T4r0R/p7EzBAREBEQN4gYYAwoHIMEBGoHABvgjdDfSCvnDCwNwwQERARkDdIGCAMqBwDRAQqBwB5UnvzpEh/pL83AQNEBEQE5A0SBggDKscAEYHKAfAmeDPUB/LKCQN7wwARAREBeYOEAcKAyjHw/38sxS2TTVGaAAAAAElFTkSuQmCC;" vertex="1" parent="1">
          <mxGeometry x="1000" y="167" width="386" height="83" as="geometry" />
        </mxCell>
      </root>
    </mxGraphModel>
  </diagram>
</mxfile>
